<svg width="322" height="71" viewBox="0 0 322 71" fill="none" xmlns="http://www.w3.org/2000/svg">
<path d="M321.449 0.0446155L315.705 0.635159L319.089 5.31366L321.449 0.0446155ZM0.745877 17.6828C2.25829 18.5457 3.76254 19.3977 5.25876 20.2388L5.74879 19.3671C4.25445 18.527 2.75204 17.6761 1.24143 16.8142L0.745877 17.6828ZM14.1792 25.1757C17.2282 26.8358 20.2439 28.4489 23.2276 30.0152L23.6924 29.1298C20.7134 27.566 17.7022 25.9552 14.6574 24.2974L14.1792 25.1757ZM32.3574 34.7112C35.454 36.2703 38.5163 37.7769 41.546 39.2311L41.9787 38.3296C38.9549 36.8782 35.8983 35.3744 32.8071 33.818L32.3574 34.7112ZM50.8088 43.5596C53.9601 44.9911 57.0765 46.3636 60.1601 47.6775L60.5521 46.7575C57.476 45.4469 54.3668 44.0775 51.2224 42.6491L50.8088 43.5596ZM69.6457 51.5741C72.8796 52.8518 76.0783 54.0624 79.2443 55.2061L79.584 54.2656C76.4277 53.1254 73.2383 51.9183 70.0131 50.644L69.6457 51.5741ZM88.9453 58.5338C92.2478 59.605 95.5161 60.6006 98.7532 61.5209L99.0266 60.559C95.8017 59.6421 92.5451 58.6501 89.2539 57.5826L88.9453 58.5338ZM108.668 64.1275C112.037 64.9395 115.374 65.6672 118.684 66.3109L118.875 65.3293C115.58 64.6885 112.257 63.964 108.902 63.1553L108.668 64.1275ZM128.791 68.0282C132.21 68.5236 135.603 68.9267 138.972 69.2381L139.064 68.2424C135.712 67.9326 132.337 67.5315 128.934 67.0385L128.791 68.0282ZM149.204 69.9045C152.642 70.0335 156.06 70.065 159.463 69.9995L159.444 68.9997C156.06 69.0648 152.661 69.0335 149.242 68.9053L149.204 69.9045ZM169.714 69.5062C173.124 69.243 176.523 68.8815 179.915 68.4222L179.781 67.4313C176.407 67.888 173.028 68.2475 169.637 68.5091L169.714 69.5062ZM190.036 66.7596C193.374 66.1151 196.71 65.376 200.049 64.5429L199.806 63.5726C196.485 64.4015 193.166 65.1367 189.846 65.7778L190.036 66.7596ZM209.932 61.8067C213.169 60.8226 216.414 59.7512 219.669 58.5929L219.334 57.6507C216.093 58.804 212.863 59.8705 209.641 60.8499L209.932 61.8067ZM229.252 54.9471C232.379 53.6817 235.52 52.3378 238.677 50.9159L238.267 50.0041C235.12 51.4209 231.992 52.7597 228.877 54.0201L229.252 54.9471ZM247.946 46.5443C250.966 45.0567 254.004 43.4998 257.064 41.8739L256.595 40.9908C253.544 42.6122 250.514 44.1644 247.504 45.6472L247.946 46.5443ZM266.042 36.9422C268.969 35.283 271.917 33.5628 274.89 31.7818L274.376 30.924C271.41 32.701 268.468 34.4172 265.548 36.0722L266.042 36.9422ZM283.623 26.4206C286.475 24.6283 289.352 22.782 292.254 20.882L291.707 20.0454C288.809 21.9421 285.938 23.785 283.091 25.5739L283.623 26.4206ZM300.8 15.1852C303.579 13.3003 306.383 11.3681 309.213 9.38882L308.64 8.56934C305.813 10.546 303.013 12.4755 300.239 14.3576L300.8 15.1852ZM317.548 3.48012C317.73 3.34939 317.912 3.21846 318.094 3.08735L317.51 2.27555C317.328 2.40651 317.146 2.53728 316.964 2.66787L317.548 3.48012ZM321.449 0.0446155L309.962 1.22139L316.724 10.5809L321.449 0.0446155ZM0.498102 18.1171C2.01142 18.9805 3.51658 19.833 5.01375 20.6746L5.99381 18.9312C4.5004 18.0917 2.99892 17.2413 1.4892 16.38L0.498102 18.1171ZM13.9401 25.6148C16.9913 27.2761 20.0092 28.8904 22.9952 30.4579L23.9248 28.6871C20.9481 27.1245 17.9391 25.5149 14.8965 23.8583L13.9401 25.6148ZM32.1325 35.1578C35.2318 36.7183 38.297 38.2262 41.3296 39.6819L42.1951 37.8788C39.1742 36.4289 36.1204 34.9265 33.0319 33.3715L32.1325 35.1578ZM50.602 44.0148C53.7568 45.4479 56.8768 46.822 59.9641 48.1375L60.7481 46.2975C57.6758 44.9885 54.5702 43.6207 51.4292 42.1939L50.602 44.0148ZM69.462 52.0391C72.7003 53.3186 75.9036 54.5309 79.0744 55.6763L79.7539 53.7953C76.6024 52.6568 73.4176 51.4515 70.1969 50.179L69.462 52.0391ZM88.7911 59.0094C92.0991 60.0824 95.3733 61.0798 98.6164 62.0018L99.1634 60.0781C95.9445 59.1629 92.6938 58.1727 89.4081 57.107L88.7911 59.0094ZM108.551 64.6135C111.927 65.4273 115.272 66.1566 118.589 66.8017L118.97 64.8385C115.683 64.1992 112.367 63.4762 109.019 62.6692L108.551 64.6135ZM128.719 68.523C132.147 69.0196 135.548 69.4238 138.926 69.736L139.11 67.7445C135.767 67.4355 132.4 67.0354 129.006 66.5437L128.719 68.523ZM149.186 70.4042C152.633 70.5335 156.061 70.5651 159.473 70.4994L159.434 68.4998C156.06 68.5648 152.67 68.5335 149.261 68.4056L149.186 70.4042ZM169.752 70.0047C173.172 69.7408 176.58 69.3783 179.982 68.9177L179.714 66.9358C176.35 67.3913 172.98 67.7497 169.599 68.0106L169.752 70.0047ZM190.131 67.2506C193.477 66.6043 196.822 65.8633 200.17 65.028L199.685 63.0875C196.372 63.9143 193.062 64.6475 189.751 65.2868L190.131 67.2506ZM210.077 62.2851C213.322 61.2987 216.574 60.2248 219.837 59.0639L219.167 57.1796C215.932 58.3304 212.71 59.3944 209.495 60.3715L210.077 62.2851ZM229.44 55.4106C232.573 54.1427 235.719 52.7963 238.883 51.3718L238.061 49.5482C234.921 50.9625 231.798 52.2987 228.69 53.5566L229.44 55.4106ZM248.167 46.9928C251.192 45.5029 254.235 43.9436 257.299 42.3154L256.36 40.5493C253.313 42.1683 250.289 43.7182 247.283 45.1986L248.167 46.9928ZM266.288 37.3771C269.219 35.7159 272.171 33.9937 275.147 32.2107L274.119 30.495C271.156 32.2702 268.218 33.9843 265.302 35.6372L266.288 37.3771ZM283.889 26.844C286.744 25.0499 289.623 23.2019 292.528 21.3004L291.433 19.627C288.538 21.5221 285.669 23.3634 282.825 25.1505L283.889 26.844ZM301.081 15.599C303.862 13.7127 306.667 11.7791 309.499 9.79856L308.353 8.15959C305.528 10.135 302.731 12.0631 299.958 13.9438L301.081 15.599Z" fill="#C4C2C2"/>
</svg>
