<svg width="49" height="50" viewBox="0 0 49 50" fill="none" xmlns="http://www.w3.org/2000/svg">
<g clip-path="url(#clip0_1060_317)">
<path d="M24.7441 49.3477C37.999 49.3477 48.7441 38.6025 48.7441 25.3477C48.7441 12.0928 37.999 1.34766 24.7441 1.34766C11.4893 1.34766 0.744141 12.0928 0.744141 25.3477C0.744141 38.6025 11.4893 49.3477 24.7441 49.3477Z" fill="#FFDE59"/>
<g clip-path="url(#clip1_1060_317)">
<path d="M36.4743 18.7188V35.4103H12.5257V18.7188H36.4743ZM37.2371 17.1292H11.7629C11.5605 17.1292 11.3665 17.2129 11.2234 17.362C11.0804 17.511 11 17.7132 11 17.924V36.2052C11 36.416 11.0804 36.6181 11.2234 36.7672C11.3665 36.9163 11.5605 37 11.7629 37H37.2371C37.4395 37 37.6335 36.9163 37.7766 36.7672C37.9196 36.6181 38 36.416 38 36.2052V17.924C38 17.7132 37.9196 17.511 37.7766 17.362C37.6335 17.2129 37.4395 17.1292 37.2371 17.1292Z" fill="black"/>
<path d="M25.4795 14.5421V17.173H23.5209V14.5421H25.4795ZM26.2424 13.0001H22.758C22.6593 12.9985 22.5613 13.0172 22.4695 13.0551C22.3778 13.093 22.2941 13.1493 22.2233 13.2209C22.1524 13.2925 22.0958 13.378 22.0567 13.4724C22.0175 13.5668 21.9966 13.6683 21.9951 13.7711V17.944C21.9966 18.0468 22.0175 18.1483 22.0567 18.2427C22.0958 18.3371 22.1524 18.4225 22.2233 18.4941C22.2941 18.5657 22.3778 18.622 22.4695 18.6599C22.5613 18.6978 22.6593 18.7165 22.758 18.7149H26.2424C26.4408 18.715 26.6315 18.6346 26.7739 18.4906C26.9163 18.3467 26.9993 18.1506 27.0053 17.944V13.7711C26.9993 13.5644 26.9163 13.3683 26.7739 13.2244C26.6315 13.0805 26.4408 13 26.2424 13.0001Z" fill="black"/>
<path d="M19.5501 22.1724C19.8991 22.1724 20.2401 22.2802 20.5303 22.4822C20.8204 22.6842 21.0465 22.9712 21.18 23.3071C21.3135 23.643 21.3485 24.0125 21.2804 24.3691C21.2123 24.7256 21.0443 25.0531 20.7976 25.3102C20.5509 25.5672 20.2365 25.7423 19.8943 25.8132C19.5521 25.8841 19.1974 25.8477 18.875 25.7086C18.5527 25.5695 18.2772 25.3339 18.0833 25.0317C17.8895 24.7294 17.786 24.374 17.786 24.0105C17.7865 23.5232 17.9725 23.056 18.3033 22.7114C18.634 22.3668 19.0824 22.173 19.5501 22.1724ZM19.5501 20.5828C18.8995 20.5828 18.2634 20.7838 17.7224 21.1604C17.1814 21.5371 16.7597 22.0724 16.5107 22.6988C16.2617 23.3251 16.1965 24.0143 16.3235 24.6792C16.4504 25.3441 16.7637 25.9549 17.2238 26.4342C17.6839 26.9136 18.2701 27.2401 18.9083 27.3723C19.5465 27.5046 20.208 27.4367 20.8091 27.1773C21.4103 26.9178 21.9241 26.4785 22.2856 25.9148C22.6471 25.3511 22.84 24.6884 22.84 24.0105C22.84 23.1014 22.4934 22.2295 21.8765 21.5867C21.2595 20.9439 20.4227 20.5828 19.5501 20.5828Z" fill="black"/>
<path d="M21.4473 28.6822C22.2884 28.6822 22.9731 29.2107 22.9731 29.8585V32.0443H16.3075V29.8585C16.3075 29.2107 16.9922 28.6822 17.8332 28.6822H21.4569M21.4569 27.5078H17.8332C16.1492 27.5078 14.7817 28.559 14.7817 29.8585V32.6404C14.7817 32.9643 15.1231 33.2366 15.5446 33.2366H23.7455C24.167 33.2366 24.5084 32.9723 24.5084 32.6404V29.8585C24.5084 28.559 23.1428 27.5078 21.4569 27.5078Z" fill="black"/>
<path d="M33.2986 29.1053H26.7931C26.5908 29.1053 26.3968 29.0216 26.2537 28.8725C26.1106 28.7234 26.0303 28.5213 26.0303 28.3105C26.0303 28.0997 26.1106 27.8975 26.2537 27.7484C26.3968 27.5994 26.5908 27.5156 26.7931 27.5156H33.2986C33.5009 27.5156 33.6949 27.5994 33.838 27.7484C33.9811 27.8975 34.0614 28.0997 34.0614 28.3105C34.0614 28.5213 33.9811 28.7234 33.838 28.8725C33.6949 29.0216 33.5009 29.1053 33.2986 29.1053Z" fill="black"/>
<path d="M33.2986 33.2247H26.7931C26.5908 33.2247 26.3968 33.1409 26.2537 32.9919C26.1106 32.8428 26.0303 32.6406 26.0303 32.4298C26.0303 32.219 26.1106 32.0169 26.2537 31.8678C26.3968 31.7188 26.5908 31.635 26.7931 31.635H33.2986C33.5009 31.635 33.6949 31.7188 33.838 31.8678C33.9811 32.0169 34.0614 32.219 34.0614 32.4298C34.0614 32.6406 33.9811 32.8428 33.838 32.9919C33.6949 33.1409 33.5009 33.2247 33.2986 33.2247Z" fill="black"/>
<path d="M33.2719 24.857H31.216C31.0137 24.857 30.8196 24.7733 30.6766 24.6242C30.5335 24.4751 30.4531 24.273 30.4531 24.0622C30.4531 23.8514 30.5335 23.6492 30.6766 23.5001C30.8196 23.3511 31.0137 23.2673 31.216 23.2673H33.2662C33.4685 23.2673 33.6626 23.3511 33.8057 23.5001C33.9487 23.6492 34.0291 23.8514 34.0291 24.0622C34.0291 24.273 33.9487 24.4751 33.8057 24.6242C33.6626 24.7733 33.4685 24.857 33.2662 24.857H33.2719Z" fill="black"/>
<path d="M28.653 24.8947C28.603 24.8953 28.5531 24.89 28.5043 24.8788C28.4553 24.8684 28.4074 24.8531 28.3612 24.8331C28.3155 24.8132 28.2714 24.7893 28.2296 24.7616C28.1886 24.7322 28.1503 24.699 28.1152 24.6622C28.0793 24.6256 28.0473 24.5849 28.0198 24.541C27.964 24.4544 27.9252 24.3571 27.9054 24.2549C27.885 24.1526 27.885 24.0471 27.9054 23.9449C27.9252 23.8426 27.964 23.7454 28.0198 23.6587C28.0473 23.6148 28.0793 23.5742 28.1152 23.5375C28.1498 23.5008 28.1882 23.4682 28.2296 23.4402C28.271 23.411 28.3151 23.3864 28.3612 23.3666C28.5005 23.3063 28.6539 23.2903 28.8019 23.3207C28.9499 23.3511 29.0859 23.4266 29.1928 23.5375C29.2276 23.5752 29.2595 23.6157 29.2881 23.6587C29.3153 23.7023 29.339 23.7481 29.3587 23.7958C29.3775 23.8439 29.3916 23.8938 29.4006 23.9449C29.421 24.0471 29.421 24.1526 29.4006 24.2549C29.3916 24.3059 29.3775 24.3558 29.3587 24.4039C29.339 24.4516 29.3153 24.4975 29.2881 24.541C29.2595 24.584 29.2276 24.6245 29.1928 24.6622C29.1219 24.736 29.0377 24.7945 28.9451 24.8344C28.8525 24.8743 28.7532 24.8948 28.653 24.8947Z" fill="black"/>
</g>
</g>
<defs>
<clipPath id="clip0_1060_317">
<rect width="49" height="49" fill="white" transform="translate(0 0.59375)"/>
</clipPath>
<clipPath id="clip1_1060_317">
<rect width="27" height="24" fill="white" transform="translate(11 13)"/>
</clipPath>
</defs>
</svg>
