<svg width="50" height="50" viewBox="0 0 50 50" fill="none" xmlns="http://www.w3.org/2000/svg">
<path d="M25 49C38.2548 49 49 38.2548 49 25C49 11.7452 38.2548 1 25 1C11.7452 1 1 11.7452 1 25C1 38.2548 11.7452 49 25 49Z" fill="#FFDE59" stroke="#FFDE59" stroke-opacity="0.12"/>
<g clip-path="url(#clip0_1066_521)">
<path d="M23.6873 19.6042C23.4949 19.6042 23.3103 19.5331 23.1732 19.4063C23.0362 19.2794 22.9577 19.107 22.9548 18.9262L22.9219 16.7666C22.9109 16.0059 23.6086 15.3727 24.4766 15.3589L26.4909 15.3228C26.5197 15.3233 26.5483 15.3186 26.5751 15.309L22.2187 12.4059C22.1843 12.3869 22.1451 12.3768 22.1051 12.3768C22.0652 12.3768 22.026 12.3869 21.9916 12.4059C20.653 13.2664 18.9646 14.4503 17.7798 15.2952C17.8078 15.3055 17.8377 15.3101 17.8677 15.309L19.4554 15.321C20.3234 15.321 21.0284 15.9509 21.0302 16.7098V18.9159C21.0302 19.0984 20.953 19.2735 20.8157 19.4026C20.6783 19.5317 20.492 19.6042 20.2977 19.6042C20.1034 19.6042 19.9171 19.5317 19.7798 19.4026C19.6424 19.2735 19.5652 19.0984 19.5652 18.9159V16.7304C19.5308 16.7052 19.4879 16.6924 19.4444 16.6943L17.8494 16.6788C17.5208 16.684 17.1987 16.5921 16.9287 16.4161C16.6586 16.2402 16.4541 15.9889 16.3441 15.6979C16.2515 15.4302 16.2518 15.1418 16.345 14.8742C16.4381 14.6067 16.6193 14.3739 16.8623 14.2094C18.0673 13.349 19.7923 12.1444 21.1621 11.265C21.4449 11.0863 21.7787 10.9922 22.1196 10.9949C22.4604 10.9977 22.7924 11.0972 23.072 11.2805L27.467 14.2059C27.7143 14.3659 27.9009 14.5958 27.9997 14.8623C28.0985 15.1287 28.1043 15.4178 28.0163 15.6876C27.9123 15.9822 27.7117 16.2382 27.4432 16.4191C27.1748 16.5999 26.8523 16.6963 26.522 16.6943L24.4985 16.7287C24.4562 16.7276 24.4148 16.7404 24.3813 16.7648L24.4143 18.9021C24.4143 19.0829 24.3387 19.2564 24.2037 19.3852C24.0687 19.514 23.8852 19.5877 23.6928 19.5905L23.6873 19.6042Z" fill="black"/>
<path d="M31.3653 22.1717C31.3653 22.1201 31.3763 22.0684 31.3763 22.0134V21.2837C31.3763 20.6521 31.1093 20.0463 30.634 19.5997C30.1587 19.153 29.5141 18.9021 28.8419 18.9021H15.5985C14.9263 18.9021 14.2817 19.153 13.8064 19.5997C13.3311 20.0463 13.0641 20.6521 13.0641 21.2837V22.0134C13.0641 22.3767 13.1528 22.7351 13.3233 23.0612C13.4937 23.3872 13.7415 23.6722 14.0475 23.8943C13.7233 24.1146 13.4594 24.404 13.2773 24.7387C13.0953 25.0734 13.0002 25.444 13 25.8199V26.5512C12.999 26.873 13.0678 27.1915 13.2023 27.4874C13.3367 27.7833 13.534 28.0503 13.7819 28.2721C13.3226 28.7158 13.0651 29.3102 13.0641 29.9293V30.6606C13.064 30.9967 13.1399 31.3289 13.2866 31.6354C13.4334 31.9418 13.6478 32.2155 13.9156 32.4382C13.6478 32.6613 13.4334 32.9353 13.2866 33.242C13.1398 33.5487 13.064 33.8813 13.0641 34.2176V34.9489C13.0646 35.5803 13.3318 36.1856 13.8071 36.6319C14.2823 37.0782 14.9267 37.3289 15.5985 37.3289H24.848C25.9135 37.764 27.061 37.9943 28.2227 38.006C29.3845 38.0178 30.537 37.8108 31.6122 37.3973C32.6875 36.9838 33.6637 36.3722 34.4834 35.5985C35.3031 34.8247 35.9496 33.9046 36.3848 32.8923C36.82 31.8801 37.0351 30.7961 37.0174 29.7045C36.9997 28.6129 36.7496 27.5356 36.2817 26.5362C35.8139 25.5369 35.1379 24.6357 34.2935 23.8858C33.4491 23.1359 32.4535 22.5525 31.3653 22.17V22.1717ZM14.5291 21.2837C14.5296 21.0173 14.6424 20.762 14.8428 20.5736C15.0433 20.3853 15.315 20.2792 15.5985 20.2788H28.8419C29.1254 20.2792 29.3971 20.3853 29.5976 20.5736C29.798 20.762 29.9109 21.0173 29.9113 21.2837V21.8C27.6805 21.4022 25.3726 21.8427 23.4838 23.027H15.5985C15.4574 23.0267 15.3177 23.0003 15.1874 22.9492C15.0572 22.8981 14.939 22.8233 14.8396 22.7291C14.7402 22.6349 14.6616 22.5232 14.6083 22.4003C14.5551 22.2775 14.5281 22.146 14.5291 22.0134V21.2837ZM15.5344 28.9329H19.6528C19.6176 29.2289 19.5998 29.5265 19.5997 29.8243C19.6007 30.4435 19.6762 31.0606 19.825 31.6639H15.5985C15.3152 31.6639 15.0435 31.5582 14.843 31.3701C14.6425 31.182 14.5296 30.9268 14.5291 30.6606V29.9293C14.5294 29.6812 14.6271 29.442 14.8035 29.2575C14.9799 29.073 15.2226 28.9562 15.485 28.9294L15.5344 28.9329ZM15.5985 35.9539C15.315 35.9535 15.0433 35.8474 14.8428 35.6591C14.6424 35.4707 14.5296 35.2153 14.5291 34.9489V34.2176C14.5296 33.9512 14.6424 33.6958 14.8428 33.5075C15.0433 33.3191 15.315 33.2131 15.5985 33.2126H20.3835C20.356 33.1558 20.3304 33.099 20.3048 33.0405C20.3304 33.099 20.356 33.1558 20.3835 33.2126C20.8919 34.2578 21.628 35.1911 22.5443 35.9522L15.5985 35.9539ZM31.0522 36.1105C30.1145 36.4735 29.1061 36.647 28.0924 36.6197C27.0787 36.5924 26.0825 36.365 25.1685 35.9522C23.8544 35.3541 22.7617 34.3991 22.0316 33.2109C21.9968 33.1558 21.9657 33.0973 21.9327 33.0388C21.7082 32.6551 21.5242 32.2516 21.3833 31.8342C21.3632 31.7774 21.3467 31.7206 21.3302 31.6621C20.9279 30.3115 20.9785 28.8772 21.4749 27.5545H19.9367H15.5985C15.5582 27.5545 15.5198 27.5545 15.4813 27.5545C15.2073 27.5417 14.949 27.4304 14.7598 27.2437C14.5707 27.057 14.4651 26.8091 14.465 26.5512V25.8199C14.4655 25.5535 14.5783 25.2981 14.7788 25.1098C14.9792 24.9214 15.2509 24.8154 15.5344 24.8149H21.4236C20.75 25.6296 20.2467 26.5569 19.9403 27.5476H21.4804C21.8787 26.5024 22.5425 25.5643 23.4142 24.8149C23.5863 24.6669 23.7658 24.5275 23.9507 24.395H24.0221C24.0221 24.383 24.0221 24.3692 24.0075 24.3572C24.8318 23.786 25.7759 23.3858 26.7771 23.1832C27.7784 22.9807 28.814 22.9803 29.8154 23.182C30.8168 23.3838 31.7612 23.7832 32.5861 24.3538C33.4109 24.9243 34.0974 25.653 34.6 26.4916C35.1026 27.3302 35.41 28.2596 35.5017 29.2182C35.5934 30.1767 35.4674 31.1427 35.1319 32.0521C34.7965 32.9615 34.2594 33.7935 33.5561 34.4932C32.8527 35.1928 31.9993 35.7441 31.0522 36.1105Z" fill="black"/>
<path d="M28.3127 25.5307C27.745 25.516 27.1827 25.6381 26.6793 25.8852C26.2567 26.0952 25.9039 26.4107 25.6597 26.7968C25.4155 27.183 25.2893 27.6249 25.2949 28.0741C25.2719 28.6112 25.4479 29.1391 25.793 29.5678C26.1263 29.959 26.683 30.243 27.4631 30.4196L29.0013 30.7827C29.2711 30.8295 29.5163 30.9605 29.6972 31.1544C29.82 31.3152 29.8842 31.509 29.8803 31.7068C29.8861 31.8524 29.8526 31.9969 29.7827 32.1269C29.7129 32.257 29.6091 32.3682 29.4811 32.4502C29.1626 32.641 28.7888 32.7336 28.4116 32.7152C27.8898 32.7298 27.3766 32.5875 26.9467 32.3091C26.7652 32.1895 26.6008 32.0484 26.4577 31.8892C26.3911 31.8142 26.3082 31.7534 26.2146 31.7109C26.1211 31.6683 26.0189 31.6449 25.915 31.6423C25.811 31.6397 25.7077 31.6579 25.6118 31.6957C25.516 31.7336 25.4298 31.7901 25.359 31.8617L25.3224 31.8978C25.2028 32.0124 25.1316 32.1639 25.1222 32.3241C25.1127 32.4844 25.1657 32.6423 25.2711 32.7686C25.5725 33.1242 25.946 33.4201 26.3698 33.6393C26.9855 33.961 27.6798 34.1259 28.3842 34.1177C28.9537 34.1331 29.5189 34.0198 30.0323 33.7873C30.4731 33.5816 30.8385 33.2568 31.0816 32.8546C31.333 32.4281 31.4594 31.9465 31.4478 31.459C31.4631 30.9783 31.3114 30.5059 31.0156 30.1133C30.7287 29.7451 30.2331 29.4835 29.5287 29.3286L27.8586 28.9328C27.5594 28.8861 27.283 28.7532 27.0675 28.5525C26.9224 28.391 26.8444 28.1857 26.8478 27.9743C26.8454 27.7788 26.9095 27.5877 27.0309 27.4288C27.1625 27.2653 27.3401 27.1395 27.5436 27.0657C27.8595 26.9536 28.1989 26.9125 28.5346 26.9457C28.8704 26.9789 29.1933 27.0854 29.4774 27.2567C29.6252 27.3439 29.7591 27.4506 29.8748 27.5734C29.946 27.6488 30.0334 27.7093 30.1312 27.7508C30.229 27.7924 30.3351 27.814 30.4425 27.8143C30.6319 27.8119 30.8128 27.7396 30.946 27.6129L30.9827 27.5785C31.1012 27.4704 31.1748 27.3261 31.1902 27.1715C31.2057 27.017 31.162 26.8623 31.0669 26.7353C30.833 26.4265 30.5338 26.1664 30.1879 25.9713C29.6171 25.6674 28.9685 25.5162 28.3127 25.5342V25.5307Z" fill="black"/>
<path d="M28.3824 35.0918C28.1881 35.0918 28.0018 35.0193 27.8644 34.8902C27.7271 34.7611 27.6499 34.586 27.6499 34.4035V33.5792C27.6499 33.3966 27.7271 33.2216 27.8644 33.0925C28.0018 32.9634 28.1881 32.8909 28.3824 32.8909C28.5767 32.8909 28.763 32.9634 28.9003 33.0925C29.0377 33.2216 29.1149 33.3966 29.1149 33.5792V34.4035C29.1149 34.586 29.0377 34.7611 28.9003 34.8902C28.763 35.0193 28.5767 35.0918 28.3824 35.0918Z" fill="black"/>
<path d="M28.3474 26.7922H28.3309C28.2347 26.7902 28.1399 26.7704 28.0519 26.7339C27.9638 26.6974 27.8843 26.645 27.8178 26.5797C27.7513 26.5143 27.6991 26.4373 27.6643 26.353C27.6295 26.2687 27.6127 26.1788 27.6149 26.0884C27.6149 25.7683 27.6296 25.4465 27.6406 25.1247C27.6436 25.0343 27.6655 24.9453 27.7051 24.8629C27.7447 24.7805 27.8012 24.7062 27.8713 24.6443C27.9414 24.5823 28.0239 24.534 28.1139 24.502C28.2039 24.47 28.2998 24.455 28.396 24.4579C28.4921 24.4607 28.5868 24.4813 28.6745 24.5185C28.7622 24.5557 28.8413 24.6088 28.9072 24.6747C28.9731 24.7406 29.0245 24.8181 29.0586 24.9026C29.0926 24.9872 29.1086 25.0773 29.1056 25.1677C29.0946 25.4843 29.0854 25.801 29.0781 26.1176C29.0743 26.2975 28.9956 26.4688 28.8591 26.5949C28.7225 26.7209 28.5389 26.7918 28.3474 26.7922Z" fill="black"/>
</g>
<defs>
<clipPath id="clip0_1066_521">
<rect width="24" height="27" fill="white" transform="translate(13 11)"/>
</clipPath>
</defs>
</svg>
