<svg width="173" height="173" viewBox="0 0 173 173" fill="none" xmlns="http://www.w3.org/2000/svg">
<path d="M86.5002 156.569C67.784 156.569 50.1903 149.279 36.9538 136.046C23.7213 122.81 16.4312 105.216 16.4312 86.4999C16.4312 67.7837 23.7213 50.19 36.9538 36.9535C50.1903 23.721 67.784 16.4309 86.5002 16.4309C105.216 16.4309 122.81 23.721 136.047 36.9535C149.279 50.186 156.569 67.7837 156.569 86.4999C156.569 105.216 149.279 122.81 136.047 136.046C122.81 149.279 105.216 156.569 86.5002 156.569ZM86.5002 20.9893C69.003 20.9893 52.5479 27.8047 40.1764 40.1762C27.8049 52.5477 20.9895 69.0028 20.9895 86.4999C20.9895 103.997 27.8049 120.452 40.1764 132.824C52.5479 145.195 69.003 152.011 86.5002 152.011C103.997 152.011 120.452 145.195 132.824 132.824C145.199 120.448 152.011 103.997 152.011 86.4999C152.011 69.0028 145.195 52.5477 132.824 40.1762C120.452 27.8047 103.997 20.9893 86.5002 20.9893Z" fill="black"/>
<path d="M86.4998 87.4774C85.2405 87.4774 84.2227 86.4595 84.2227 85.2002V38.6109C84.2227 37.3516 85.2405 36.3337 86.4998 36.3337C87.7591 36.3337 88.777 37.3516 88.777 38.6109V85.1962C88.777 86.4555 87.7591 87.4774 86.4998 87.4774Z" fill="#FFDE59"/>
<path d="M86.4998 88.7768C85.9164 88.7768 85.333 88.5556 84.8905 88.109C84.0013 87.2198 84.0013 85.7795 84.8905 84.8864L109.119 60.6583C110.008 59.7692 111.448 59.7692 112.341 60.6583C113.234 61.5474 113.23 62.9878 112.341 63.8809L88.1091 88.109C87.6665 88.5556 87.0832 88.7768 86.4998 88.7768Z" fill="#FFDE59"/>
</svg>
