<svg width="19" height="18" viewBox="0 0 19 18" fill="none" xmlns="http://www.w3.org/2000/svg">
<path d="M11.1146 8.99872L17.5593 2.56902C17.8415 2.2868 18.0001 1.90402 18.0001 1.5049C18.0001 1.10577 17.8415 0.722997 17.5593 0.440774C17.2771 0.158551 16.8943 0 16.4952 0C16.096 0 15.7133 0.158551 15.431 0.440774L9.00134 6.88546L2.57164 0.440774C2.28942 0.158551 1.90664 -2.9737e-09 1.50752 0C1.10839 2.9737e-09 0.725616 0.158551 0.443393 0.440774C0.16117 0.722997 0.00261883 1.10577 0.00261883 1.5049C0.00261883 1.90402 0.16117 2.2868 0.443393 2.56902L6.88808 8.99872L0.443393 15.4284C0.302916 15.5678 0.191417 15.7335 0.115327 15.9162C0.0392365 16.0988 6.10352e-05 16.2947 6.10352e-05 16.4925C6.10352e-05 16.6904 0.0392365 16.8863 0.115327 17.0689C0.191417 17.2516 0.302916 17.4173 0.443393 17.5567C0.582723 17.6971 0.748488 17.8086 0.931126 17.8847C1.11376 17.9608 1.30966 18 1.50752 18C1.70537 18 1.90127 17.9608 2.08391 17.8847C2.26655 17.8086 2.43231 17.6971 2.57164 17.5567L9.00134 11.112L15.431 17.5567C15.5704 17.6971 15.7361 17.8086 15.9188 17.8847C16.1014 17.9608 16.2973 18 16.4952 18C16.693 18 16.8889 17.9608 17.0716 17.8847C17.2542 17.8086 17.42 17.6971 17.5593 17.5567C17.6998 17.4173 17.8113 17.2516 17.8874 17.0689C17.9634 16.8863 18.0026 16.6904 18.0026 16.4925C18.0026 16.2947 17.9634 16.0988 17.8874 15.9162C17.8113 15.7335 17.6998 15.5678 17.5593 15.4284L11.1146 8.99872Z" fill="#080808"/>
</svg>
