<svg width="173" height="173" viewBox="0 0 173 173" fill="none" xmlns="http://www.w3.org/2000/svg">
<path d="M61.8816 122.866C61.2741 122.866 60.6706 122.641 60.2039 122.187C59.2463 121.257 59.2182 119.736 60.1476 118.779L60.1596 118.763C61.089 117.805 62.6178 117.785 63.5713 118.714C64.5289 119.644 64.549 121.173 63.6196 122.126C63.1489 122.621 62.5132 122.866 61.8816 122.866Z" fill="#FFDE59"/>
<path d="M67.4782 117.157C66.8707 117.157 66.2632 116.932 65.7925 116.473C64.8389 115.54 64.8148 114.023 65.7482 113.07L65.7683 113.05C66.7017 112.096 68.2305 112.08 69.18 113.013C70.1295 113.947 70.1496 115.476 69.2162 116.425C68.7415 116.912 68.1098 117.157 67.4782 117.157Z" fill="#FFDE59"/>
<path d="M73.0788 111.448C72.4713 111.448 71.8678 111.223 71.4011 110.768C70.4436 109.839 70.4154 108.318 71.3448 107.361L71.3569 107.345C72.2863 106.387 73.8151 106.367 74.7686 107.296C75.7261 108.226 75.7463 109.754 74.8169 110.708C74.3462 111.203 73.7105 111.448 73.0788 111.448Z" fill="#FFDE59"/>
<path d="M111.018 122.87C110.394 122.87 109.771 122.629 109.296 122.142L109.284 122.126C108.354 121.169 108.375 119.644 109.332 118.714C110.29 117.785 111.814 117.805 112.744 118.763C113.673 119.72 113.657 121.253 112.704 122.182C112.233 122.645 111.625 122.87 111.018 122.87Z" fill="#FFDE59"/>
<path d="M105.417 117.165C104.798 117.165 104.178 116.924 103.707 116.445L103.687 116.425C102.754 115.472 102.77 113.943 103.723 113.013C104.677 112.08 106.206 112.096 107.135 113.05C108.069 114.003 108.06 115.54 107.107 116.473C106.64 116.932 106.029 117.165 105.417 117.165Z" fill="#FFDE59"/>
<path d="M99.821 111.456C99.2014 111.456 98.5818 111.219 98.1111 110.74L98.095 110.724C97.1576 109.774 97.1697 108.246 98.1191 107.308C99.0686 106.371 100.597 106.383 101.535 107.332C102.472 108.282 102.468 109.819 101.519 110.752C101.044 111.223 100.433 111.456 99.821 111.456Z" fill="#FFDE59"/>
<path d="M98.5253 83.5426C95.0895 83.5426 91.7019 82.5046 88.8132 80.505C87.8436 79.8331 87.5016 78.5578 88.0045 77.4876C90.1529 72.9453 94.1722 69.5899 99.0242 68.2904C103.88 66.9909 109.034 67.8841 113.166 70.7446C114.136 71.4165 114.478 72.6919 113.975 73.762C111.826 78.3043 107.807 81.6597 102.955 82.9592C101.494 83.3495 100.006 83.5426 98.5253 83.5426ZM93.5003 77.6324C96.0551 78.7871 98.9478 79.0325 101.708 78.2963C104.464 77.556 106.845 75.8944 108.483 73.6172C105.928 72.4625 103.035 72.2171 100.275 72.9534C97.5195 73.6936 95.1378 75.3553 93.5003 77.6324Z" fill="#FFDE59"/>
<path d="M74.4745 83.5428C72.9939 83.5428 71.5053 83.3497 70.0449 82.9594C65.1888 81.6599 61.1736 78.3045 59.0252 73.7623C58.5182 72.6961 58.8602 71.4167 59.8338 70.7448C63.9657 67.8843 69.1195 66.9911 73.9756 68.2907C78.8317 69.5902 82.8469 72.9456 84.9953 77.4878C85.5022 78.554 85.1602 79.8334 84.1866 80.5053C81.2979 82.5048 77.9103 83.5428 74.4745 83.5428ZM64.5169 73.6174C66.1544 75.8946 68.5361 77.5562 71.2921 78.2965C74.052 79.0368 76.9407 78.7873 79.4995 77.6327C77.8621 75.3555 75.4803 73.6939 72.7244 72.9536C69.9644 72.2174 67.0717 72.4668 64.5169 73.6174Z" fill="#FFDE59"/>
<path d="M92.8044 118.284H80.1996C79.4714 118.284 78.7794 117.954 78.3207 117.387C77.8621 116.82 77.685 116.075 77.8379 115.363L84.1424 85.9935C84.3797 84.879 85.3654 84.0864 86.504 84.0864C87.6426 84.0864 88.6243 84.883 88.8657 85.9935L95.1701 115.363C95.323 116.075 95.146 116.82 94.6873 117.387C94.2206 117.954 93.5327 118.284 92.8044 118.284ZM83.1848 113.456H89.8192L86.5 98.0029L83.1848 113.456Z" fill="black"/>
<path d="M86.5003 140.36C85.9813 140.36 85.4664 140.195 85.0318 139.861L75.5812 132.627C74.9858 132.168 74.6357 131.46 74.6357 130.712C74.6357 129.964 74.9858 129.252 75.5812 128.797L85.0318 121.563C85.8968 120.899 87.0998 120.899 87.9648 121.563L97.4154 128.797C98.0109 129.256 98.3609 129.964 98.3609 130.712C98.3609 131.46 98.0109 132.172 97.4154 132.627L87.9648 139.861C87.5343 140.195 87.0193 140.36 86.5003 140.36ZM81.0207 130.712L86.5003 134.908L91.98 130.716L86.5003 126.52L81.0207 130.712Z" fill="#FFDE59"/>
<path d="M86.4999 52.13C85.1682 52.13 84.0859 51.0598 84.0859 49.7241V49.704C84.0859 48.3723 85.1682 47.29 86.4999 47.29C87.8316 47.29 88.9138 48.3723 88.9138 49.704C88.9138 51.0357 87.8316 52.13 86.4999 52.13Z" fill="#FFDE59"/>
<path d="M86.4999 43.3712C85.1682 43.3712 84.0859 42.3051 84.0859 40.9734V40.9452C84.0859 39.6135 85.1682 38.5312 86.4999 38.5312C87.8316 38.5312 88.9138 39.6135 88.9138 40.9452C88.9138 42.2769 87.8316 43.3712 86.4999 43.3712Z" fill="#FFDE59"/>
<path d="M86.4999 34.6124C85.1682 34.6124 84.0859 33.5423 84.0859 32.2065V32.1864C84.0859 30.8547 85.1682 29.7725 86.4999 29.7725C87.8316 29.7725 88.9138 30.8547 88.9138 32.1864C88.9138 33.5181 87.8316 34.6124 86.4999 34.6124Z" fill="#FFDE59"/>
<path d="M123.912 54.2856C124.065 42.2722 117.612 30.9628 107.043 25.0325C104.218 23.4474 101.245 22.2203 98.1835 21.3432C97.9864 21.2587 97.7812 21.2024 97.564 21.1742C90.3301 19.2189 82.6578 19.2189 75.424 21.1742C75.2188 21.2024 75.0217 21.2587 74.8326 21.3352C71.7668 22.2122 68.7816 23.4434 65.9532 25.0285C55.4083 30.9427 48.959 42.2159 49.0797 54.1971C49.0797 54.2253 49.0757 54.2575 49.0757 54.2856C49.0757 54.3701 49.0797 54.4546 49.0878 54.5351C49.0998 55.1788 49.128 55.8225 49.1803 56.4703L51.6988 88.0488C53.4329 109.815 61.4472 130.426 74.8688 147.649C77.681 151.258 81.9215 153.33 86.5 153.33C91.0785 153.33 95.315 151.258 98.1312 147.649C111.553 130.426 119.567 109.815 121.301 88.0488L123.82 56.4703C123.876 55.7461 123.908 55.0219 123.916 54.2977C123.916 54.2937 123.916 54.2897 123.916 54.2856C123.916 54.2897 123.912 54.2856 123.912 54.2856ZM119.024 51.92C116.312 51.9964 111.69 52.2177 106.705 52.8252L100.618 27.2856C102.006 27.8528 103.365 28.5006 104.685 29.2409C113.029 33.9239 118.368 42.5377 119.024 51.92ZM86.5 24.5256C89.437 24.5256 92.3699 24.8716 95.2385 25.5596L101.905 53.5293C94.3534 54.8408 89.2439 56.8243 86.496 59.5199C83.7521 56.8243 78.6426 54.8449 71.103 53.5333L77.7736 25.5596C80.6341 24.8756 83.5671 24.5256 86.5 24.5256ZM68.3189 29.2449C69.6426 28.5006 71.0065 27.8528 72.3945 27.2856L66.3033 52.8292C61.3144 52.2177 56.6877 52.0004 53.976 51.92C54.6318 42.5377 59.9707 33.9239 68.3189 29.2449ZM94.3212 144.684C92.4303 147.11 89.5778 148.506 86.5 148.506C83.4222 148.506 80.5697 147.114 78.6788 144.684C70.8495 134.638 64.9514 123.389 61.1575 111.42L77.5442 93.4963C78.4455 92.5106 78.3771 90.9858 77.3914 90.0846C76.4097 89.1834 74.8808 89.2518 73.9796 90.2374L59.5884 105.976C58.0435 100.01 57.0055 93.8865 56.5107 87.6626L54.0484 56.7519C57.09 56.8484 62.4409 57.118 67.8482 57.8985C67.8562 57.8985 67.8683 57.9025 67.8764 57.9025C68.1419 57.9428 68.4074 57.979 68.673 58.0192C78.3207 59.5038 84.078 62.1229 84.078 65.0197C84.078 66.3514 85.1562 67.4336 86.492 67.4336C87.8237 67.4336 88.9059 66.3554 88.9059 65.0197C88.9059 62.1189 94.6712 59.5038 104.319 58.0152C104.581 57.975 104.842 57.9347 105.108 57.8985C105.14 57.8945 105.176 57.8905 105.208 57.8824C110.599 57.11 115.922 56.8404 118.952 56.7438L116.489 87.6545C115.99 93.9147 114.944 100.078 113.383 106.081L98.8876 90.2254C97.9864 89.2397 96.4616 89.1713 95.4759 90.0725C94.4902 90.9737 94.4218 92.4985 95.323 93.4842L111.81 111.516C108.012 123.457 102.126 134.67 94.3212 144.684Z" fill="black"/>
</svg>
