<svg width="135" height="135" viewBox="0 0 135 135" fill="none" xmlns="http://www.w3.org/2000/svg">
<path d="M67.4881 134.495C67.4841 134.495 67.4841 134.495 67.4801 134.495C57.9007 134.491 49.5323 129.136 45.5211 120.651C36.682 123.809 26.9779 121.673 20.2068 114.898C13.4357 108.123 11.3074 98.4186 14.4696 89.5835C5.98863 85.5683 0.637695 77.1959 0.637695 67.6165C0.641719 58.0372 5.99667 49.6688 14.4817 45.6576C11.3235 36.8185 13.4598 27.1144 20.235 20.3433C27.0101 13.5721 36.7142 11.4398 45.5493 14.6061C49.5645 6.1251 57.9329 0.77417 67.5082 0.77417C67.5123 0.77417 67.5123 0.77417 67.5163 0.77417C77.0956 0.778193 85.464 6.13314 89.4752 14.6182C98.3103 11.4599 108.018 13.5963 114.79 20.3714C121.561 27.1466 123.693 36.8507 120.527 45.6898C129.008 49.705 134.359 58.0774 134.359 67.6568C134.355 77.2361 129 85.6045 120.515 89.6157C123.673 98.4548 121.537 108.159 114.761 114.93C107.986 121.701 98.2821 123.833 89.447 120.667C85.4318 129.144 77.0635 134.495 67.4881 134.495ZM46.8287 115.083C47.1425 115.083 47.4563 115.143 47.754 115.268C48.3857 115.53 48.8765 116.044 49.1059 116.688C52.5055 126.256 60.8256 129.663 67.4841 129.667H67.4881C74.1426 129.667 82.4627 126.26 85.8663 116.7C86.0957 116.057 86.5865 115.542 87.2182 115.28C87.8498 115.019 88.5619 115.039 89.1775 115.332C98.3465 119.694 106.642 116.217 111.35 111.514C116.057 106.811 119.537 98.5151 115.18 89.3461C114.886 88.7306 114.87 88.0185 115.132 87.3868C115.393 86.7552 115.908 86.2643 116.552 86.035C126.119 82.6354 129.527 74.3153 129.531 67.6568C129.535 61.0023 126.127 52.6742 116.564 49.2705C115.92 49.0412 115.405 48.5503 115.144 47.9187C114.882 47.287 114.902 46.5749 115.196 45.9594C119.557 36.7904 116.085 28.4944 111.378 23.7872C106.671 19.08 98.3787 15.5999 89.2097 19.9571C88.5941 20.2508 87.882 20.2668 87.2503 20.0053C86.6187 19.7438 86.1279 19.2288 85.8985 18.5851C82.4989 9.01782 74.1788 5.61012 67.5203 5.6061H67.5163C60.8618 5.6061 52.5417 9.0138 49.138 18.5731C48.9087 19.2168 48.4179 19.7317 47.7862 19.9933C47.1546 20.2548 46.4425 20.2347 45.8269 19.941C36.6619 15.5798 28.3619 19.0518 23.6547 23.759C18.9475 28.4622 15.4674 36.7582 19.8246 45.9272C20.1183 46.5427 20.1344 47.2548 19.8729 47.8865C19.6114 48.5181 19.0964 49.009 18.4527 49.2383C8.88537 52.638 5.47767 60.958 5.47365 67.6165C5.46963 74.271 8.87732 82.5991 18.4406 86.0028C19.0843 86.2321 19.5993 86.723 19.8608 87.3546C20.1223 87.9863 20.1022 88.6984 19.8085 89.314C15.4473 98.483 18.9194 106.779 23.6266 111.486C28.3298 116.193 36.6257 119.673 45.7947 115.316C46.1206 115.163 46.4746 115.083 46.8287 115.083Z" fill="black"/>
<path d="M67.4881 134.222C67.4841 134.222 67.4841 134.222 67.4801 134.222C57.9007 134.218 49.5323 128.863 45.5211 120.378C36.6861 123.536 26.9779 121.399 20.2068 114.624C13.4357 107.849 11.3033 98.145 14.4696 89.3059C5.98863 85.2907 0.637695 76.9183 0.637695 67.339C0.641719 57.7596 5.99667 49.3912 14.4817 45.38C11.3235 36.5409 13.4598 26.8368 20.235 20.0657C27.0101 13.2946 36.7183 11.1622 45.5493 14.3285C49.5645 5.84751 57.9329 0.496582 67.5082 0.496582C67.5123 0.496582 67.5123 0.496582 67.5163 0.496582C77.0956 0.500605 85.464 5.85556 89.4752 14.3406C98.3143 11.1824 108.018 13.3187 114.79 20.0939C121.561 26.869 123.689 36.5731 120.527 45.4082C129.008 49.4234 134.359 57.7958 134.359 67.3752C134.355 76.9545 129 85.3229 120.515 89.3341C123.673 98.1732 121.537 107.877 114.761 114.648C107.986 121.42 98.2821 123.548 89.447 120.386C85.4318 128.871 77.0635 134.222 67.4881 134.222ZM46.8287 114.809C47.1425 114.809 47.4563 114.87 47.754 114.994C48.3857 115.256 48.8765 115.771 49.1059 116.415C52.5055 125.982 60.8256 129.39 67.4841 129.394H67.4881C74.1426 129.394 82.4627 125.986 85.8663 116.427C86.0957 115.783 86.5865 115.268 87.2182 115.006C87.8498 114.745 88.5619 114.765 89.1775 115.059C98.3425 119.42 106.642 115.948 111.35 111.241C116.057 106.538 119.537 98.2416 115.18 89.0726C114.886 88.457 114.87 87.7449 115.132 87.1133C115.393 86.4816 115.908 85.9908 116.552 85.7615C126.119 82.3618 129.527 74.0417 129.531 67.3832C129.535 60.7287 126.127 52.4006 116.564 48.9969C115.92 48.7676 115.405 48.2768 115.144 47.6451C114.882 47.0135 114.902 46.3013 115.196 45.6858C119.557 36.5168 116.085 28.2208 111.378 23.5136C106.675 18.8064 98.3787 15.3263 89.2097 19.6835C88.5941 19.9772 87.882 19.9933 87.2503 19.7318C86.6187 19.4703 86.1279 18.9553 85.8985 18.3116C82.4989 8.74426 74.1788 5.33656 67.5203 5.33254H67.5163C60.8618 5.33254 52.5417 8.74023 49.138 18.2995C48.9087 18.9432 48.4179 19.4582 47.7862 19.7197C47.1546 19.9812 46.4425 19.9611 45.8269 19.6674C36.6579 15.3062 28.3619 18.7823 23.6547 23.4855C18.9475 28.1887 15.4674 36.4846 19.8246 45.6536C20.1183 46.2692 20.1344 46.9813 19.8729 47.6129C19.6114 48.2446 19.0964 48.7354 18.4527 48.9647C8.88537 52.3644 5.47767 60.6845 5.47365 67.343C5.46963 73.9974 8.87732 82.3256 18.4406 85.7293C19.0843 85.9586 19.5993 86.4494 19.8608 87.0811C20.1223 87.7127 20.1022 88.4248 19.8085 89.0404C15.4473 98.2094 18.9194 106.505 23.6266 111.213C28.3338 115.92 36.6257 119.4 45.7947 115.043C46.1206 114.89 46.4746 114.809 46.8287 114.809Z" fill="black"/>
<path d="M134.359 67.3835C134.363 57.8041 129.012 49.4317 120.527 45.4165C123.693 36.5814 121.561 26.8773 114.79 20.1022C108.018 13.327 98.3143 11.1906 89.4752 14.3489C85.464 5.86386 77.0956 0.508906 67.5163 0.504883C67.5123 0.504883 67.5123 0.504883 67.5082 0.504883C57.9329 0.504883 49.5645 5.85581 45.5493 14.3368C36.7142 11.1746 27.0101 13.3029 20.235 20.074C13.4598 26.8451 11.3235 36.5492 14.4817 45.3883C5.99667 49.3995 0.641721 57.7679 0.637698 67.3473C0.633674 76.9266 5.9846 85.299 14.4697 89.3142C11.3033 98.1493 13.4357 107.857 20.2068 114.633C26.978 121.408 36.682 123.544 45.5211 120.386C49.5323 128.871 57.9007 134.226 67.4801 134.23C67.4841 134.23 67.4841 134.23 67.4881 134.23C77.0635 134.23 85.4318 128.879 89.447 120.398C98.2821 123.564 107.986 121.432 114.761 114.661C121.537 107.89 123.673 98.1855 120.515 89.3464C129 85.3312 134.355 76.9628 134.359 67.3835ZM116.552 85.7577C115.908 85.987 115.393 86.4778 115.132 87.1095C114.87 87.7411 114.886 88.4532 115.18 89.0688C119.537 98.2378 116.057 106.534 111.35 111.237C106.642 115.944 98.3425 119.416 89.1775 115.055C88.5619 114.761 87.8498 114.741 87.2182 115.003C86.5865 115.264 86.0957 115.779 85.8663 116.423C82.4627 125.982 74.1426 129.39 67.4881 129.39H67.4841C60.8296 129.39 52.5055 125.978 49.1059 116.411C48.8765 115.767 48.3857 115.252 47.754 114.991C47.4563 114.87 47.1425 114.806 46.8287 114.806C46.4746 114.806 46.1206 114.882 45.7947 115.039C36.6257 119.396 28.3298 115.916 23.6266 111.209C18.9234 106.502 15.4473 98.2056 19.8085 89.0366C20.1022 88.4211 20.1223 87.709 19.8608 87.0773C19.5993 86.4456 19.0843 85.9548 18.4406 85.7255C8.87732 82.3218 5.47365 73.9977 5.47365 67.3392C5.47365 60.6847 8.88537 52.3606 18.4527 48.961C19.0964 48.7317 19.6114 48.2408 19.8729 47.6092C20.1344 46.9775 20.1183 46.2654 19.8246 45.6498C15.4674 36.4808 18.9475 28.1849 23.6547 23.4817C28.3619 18.7785 36.6579 15.3024 45.8269 19.6636C46.4425 19.9573 47.1546 19.9774 47.7862 19.7159C48.4179 19.4544 48.9087 18.9394 49.138 18.2957C52.5417 8.73646 60.8618 5.32877 67.5163 5.32877H67.5203C74.1748 5.32877 82.4989 8.74049 85.8985 18.3078C86.1279 18.9515 86.6187 19.4665 87.2503 19.728C87.882 19.9895 88.5941 19.9694 89.2097 19.6797C98.3787 15.3266 106.675 18.8027 111.378 23.5099C116.081 28.2171 119.557 36.513 115.196 45.682C114.902 46.2976 114.882 47.0097 115.144 47.6413C115.405 48.273 115.92 48.7638 116.564 48.9932C126.127 52.3968 129.531 60.721 129.531 67.3794C129.531 74.0379 126.119 82.362 116.552 85.7577Z" fill="black"/>
<path d="M107.431 43.7949C106.795 43.7949 106.172 44.0524 105.721 44.503C105.275 44.9496 105.017 45.5732 105.017 46.2089C105.017 46.3658 105.033 46.5227 105.061 46.6796C105.094 46.8325 105.142 46.9854 105.202 47.1302C105.263 47.2791 105.335 47.4159 105.423 47.5486C105.512 47.6814 105.613 47.8021 105.721 47.9147C105.834 48.0274 105.959 48.128 106.091 48.2165C106.22 48.301 106.361 48.3774 106.506 48.4378C106.651 48.4981 106.803 48.5424 106.956 48.5746C107.113 48.6067 107.27 48.6228 107.431 48.6228C108.067 48.6228 108.686 48.3653 109.137 47.9147C109.588 47.4682 109.845 46.8445 109.845 46.2089C109.845 45.5732 109.588 44.9496 109.137 44.503C108.686 44.0524 108.067 43.7949 107.431 43.7949Z" fill="black"/>
<path d="M97.6863 23.7471C95.7149 23.7471 93.7355 24.2138 91.7963 25.1351C90.5934 25.7064 90.0784 27.1467 90.6497 28.3497C91.221 29.5526 92.6613 30.0676 93.8643 29.4963C95.1477 28.8848 96.4351 28.575 97.6823 28.575C100.539 28.575 103.339 30.2004 104.993 32.8195C105.677 33.8977 106.449 35.6479 106.272 37.8446C106.163 39.1722 107.153 40.339 108.481 40.4476C108.549 40.4516 108.614 40.4557 108.678 40.4557C109.921 40.4557 110.979 39.4981 111.08 38.2388C111.365 34.7145 110.146 31.9465 109.072 30.2446C106.546 26.2334 102.18 23.7471 97.6863 23.7471Z" fill="black"/>
<path d="M90.2678 45.1306C89.3264 44.1892 87.7976 44.1892 86.8561 45.1306L45.5655 86.4213C44.624 87.3628 44.624 88.8916 45.5655 89.833C46.0362 90.3038 46.6558 90.5411 47.2713 90.5411C47.8869 90.5411 48.5065 90.3038 48.9772 89.833L90.2678 48.5424C91.2133 47.6009 91.2133 46.0721 90.2678 45.1306Z" fill="#FFDE59"/>
<path d="M83.6374 72.9514C77.856 72.9514 73.1528 77.6546 73.1528 83.436C73.1528 89.2174 77.856 93.9206 83.6374 93.9206C89.4189 93.9206 94.122 89.2174 94.122 83.436C94.122 77.6546 89.4189 72.9514 83.6374 72.9514ZM83.6374 89.0887C80.5194 89.0887 77.9807 86.55 77.9807 83.432C77.9807 80.314 80.5194 77.7753 83.6374 77.7753C86.7555 77.7753 89.2941 80.314 89.2941 83.432C89.2941 86.55 86.7555 89.0887 83.6374 89.0887Z" fill="#FFDE59"/>
<path d="M61.8432 51.2903C61.8432 45.5089 57.14 40.8057 51.3586 40.8057C45.5772 40.8057 40.874 45.5089 40.874 51.2903C40.874 57.0717 45.5772 61.7749 51.3586 61.7749C57.1441 61.7749 61.8432 57.0717 61.8432 51.2903ZM45.706 51.2903C45.706 48.1723 48.2446 45.6336 51.3626 45.6336C54.4807 45.6336 57.0193 48.1723 57.0193 51.2903C57.0193 54.4083 54.4807 56.947 51.3626 56.947C48.2446 56.947 45.706 54.4123 45.706 51.2903Z" fill="#FFDE59"/>
</svg>
