<svg width="325" height="326" viewBox="0 0 325 326" fill="none" xmlns="http://www.w3.org/2000/svg">
<ellipse cx="162.645" cy="163.354" rx="161.869" ry="162.077" fill="#FFDE59" fill-opacity="0.1" stroke="#FFDE59" stroke-opacity="0.5" stroke-width="0.753846"/>
<ellipse cx="162.268" cy="163.731" rx="129.119" ry="129.285" fill="#FFDE59" fill-opacity="0.1" stroke="#FFDE59" stroke-opacity="0.5" stroke-width="0.753846"/>
<ellipse cx="162.645" cy="163.354" rx="98.627" ry="98.7538" fill="#FFDE59" fill-opacity="0.08" stroke="#FFDE59" stroke-opacity="0.5" stroke-width="0.753846"/>
<ellipse cx="163.398" cy="163.354" rx="54.2072" ry="54.2769" fill="#FFDE59" fill-opacity="0.12"/>
<ellipse cx="163.021" cy="163.731" rx="47.0549" ry="47.1154" fill="#FFDE59"/>
<g clip-path="url(#clip0_1376_419)">
<path d="M155.492 150.161V163.354C155.492 167.724 159.033 171.269 163.398 171.269C167.762 171.269 171.303 167.724 171.303 163.354H164.715C163.991 163.354 163.398 162.76 163.398 162.035C163.398 161.309 163.991 160.715 164.715 160.715H171.303V158.077H164.715C163.991 158.077 163.398 157.483 163.398 156.758C163.398 156.032 163.991 155.438 164.715 155.438H171.303V152.8H164.715C163.991 152.8 163.398 152.206 163.398 151.481C163.398 150.755 163.991 150.161 164.715 150.161H171.303C171.303 145.792 167.762 142.246 163.398 142.246C159.033 142.246 155.492 145.792 155.492 150.161ZM173.938 162.035V163.354C173.938 169.183 169.22 173.908 163.398 173.908C157.576 173.908 152.857 169.183 152.857 163.354V160.056C152.857 158.959 151.976 158.077 150.881 158.077C149.786 158.077 148.905 158.959 148.905 160.056V163.354C148.905 170.7 154.356 176.769 161.421 177.733V180.504H157.469C156.374 180.504 155.492 181.386 155.492 182.483C155.492 183.579 156.374 184.461 157.469 184.461H163.398H169.327C170.422 184.461 171.303 183.579 171.303 182.483C171.303 181.386 170.422 180.504 169.327 180.504H165.374V177.733C172.439 176.769 177.891 170.7 177.891 163.354V160.056C177.891 158.959 177.009 158.077 175.914 158.077C174.819 158.077 173.938 158.959 173.938 160.056V162.035Z" fill="black"/>
</g>
<defs>
<clipPath id="clip0_1376_419">
<rect width="31.6209" height="42.2154" fill="white" transform="translate(147.587 142.246)"/>
</clipPath>
</defs>
</svg>
