<svg width="664" height="542" viewBox="0 0 664 542" fill="none" xmlns="http://www.w3.org/2000/svg">
<g clip-path="url(#clip0_945_52969)">
<path d="M445.646 158.191C445.646 159.173 445.356 160.133 444.811 160.949C444.267 161.766 443.493 162.402 442.587 162.778C441.681 163.153 440.685 163.252 439.724 163.06C438.762 162.869 437.879 162.396 437.186 161.701C436.493 161.007 436.021 160.123 435.83 159.16C435.638 158.196 435.737 157.198 436.112 156.291C436.487 155.384 437.122 154.609 437.937 154.063C438.752 153.517 439.71 153.226 440.69 153.226C442.005 153.226 443.265 153.749 444.195 154.68C445.124 155.611 445.646 156.874 445.646 158.191Z" fill="#352320"/>
<path d="M554.679 450.125C554.679 450.125 538.137 454.609 508.302 453.61C478.468 452.61 471.746 452.992 471.129 461.086C470.512 469.181 469.258 492.472 469.258 492.472C469.258 492.472 482.689 488.855 484.802 498.449C486.916 508.043 481.94 519.623 481.94 519.623H558.932C558.932 519.623 563.902 505.42 561.663 484.621C559.425 463.822 554.679 450.125 554.679 450.125Z" fill="#FFFCF0" fill-opacity="0.3"/>
<path d="M434.166 125.997C433.601 125.622 426.144 117.277 426.518 109.183C426.893 101.088 428.199 104.073 431.429 105.323C434.658 106.572 445.975 105.198 454.797 106.815C463.62 108.433 475.317 114.226 475.626 123.195C475.934 132.165 478.422 134.591 475.317 138.885C472.212 143.179 470.899 142.127 467.296 143.619C463.692 145.112 457.725 157.941 454.673 158.474C451.62 159.006 452.191 146.269 454.554 140.476C456.918 134.683 463.744 128.462 461.453 125.904C459.162 123.347 443.553 121.795 438.761 124.971C433.969 128.147 434.166 125.97 434.166 125.97V125.997Z" fill="black"/>
<path d="M303.124 254.525C303.124 254.525 312.078 263.027 321.274 255.794C330.471 248.56 329.978 237.382 329.808 235.238C329.637 233.094 343.803 244.832 348.956 246.417C354.109 248.001 352.75 242.616 352.75 242.616C352.75 242.616 348.214 239.624 348.897 238.44C349.579 237.257 353.432 235.889 357.43 237.697C361.428 239.506 370.053 239.013 364.703 234.896C359.353 230.78 370.427 222.001 374.09 217.832C377.753 213.663 384.724 205.753 387.521 204.628C390.317 203.504 415.248 198.835 417.112 198.342C418.976 197.849 412.012 205.687 413.01 210.796C414.018 215.806 415.293 220.758 416.83 225.631C417.637 227.873 412.537 240.755 412.537 240.755C412.537 240.755 400.295 240.755 395.568 241.564C390.842 242.373 380.773 242.189 381.271 246.364C381.77 250.54 386.523 271.582 386.739 276.001C386.956 280.42 391.899 295.07 393.96 296.865C396.021 298.66 398.122 298.358 398.122 299.042C398.122 299.726 372.639 327.935 366.613 331.486C360.587 335.037 351.634 335.037 342.181 334.597C332.729 334.156 326.079 337.089 327.819 329.869C329.558 322.649 333.464 316.671 341.998 311.753C350.531 306.834 359.774 294.505 359.774 294.505C359.774 294.505 369.219 296.806 369.843 293.137C370.467 289.468 364.684 292.131 366.364 286.785C368.044 281.439 374.005 265.23 375.062 260.252C376.118 255.274 372.39 250.783 372.39 250.783C372.39 250.783 369.41 264.921 362.386 270.339C355.362 275.757 351.26 280.735 337.77 277.191C324.281 273.647 305.894 258.069 305.172 257.326C304.422 256.443 303.738 255.507 303.124 254.525Z" fill="#FFDE59"/>
<path d="M508.952 217.254C508.952 217.254 503.412 210.915 491.104 205.805C478.796 200.696 465.438 190.747 464.19 198.572C462.943 206.397 460.587 218.832 454.436 224.908C448.285 230.984 444.59 225.348 444.59 225.348C444.59 225.348 440.894 240.841 440.809 253.703C440.723 266.565 439.666 264.007 448.193 265.592C456.72 267.176 461.552 262.422 469.114 257.313C476.676 252.203 480.102 257.313 483.627 255.55C487.152 253.788 492.062 260.66 492.062 260.66C492.062 260.66 478.612 261.712 477.995 261.626C477.378 261.541 468.936 263.744 471.05 265.677C473.164 267.61 488.984 266.821 490.92 278.539C492.857 290.257 491.885 294.564 486.529 297.648C481.172 300.732 475.008 299.41 475.008 299.41C475.008 299.41 496.441 305.841 505.073 304.013C513.705 302.185 516.153 294.853 515.628 282.787C515.103 270.721 513.691 232.503 513.166 227.308C512.641 222.113 508.939 217.26 508.939 217.26L508.952 217.254Z" fill="#FFDE59"/>
<path d="M415.018 134.591C415.018 134.591 410.915 125.997 413.836 119.329C416.757 112.661 420.243 112.543 420.243 112.543C420.243 112.543 421.044 116.094 419.055 122.071C417.066 128.048 415.018 134.565 415.018 134.565V134.591Z" fill="black"/>
<path d="M382.256 315.738C381.757 317.112 369.081 337.661 358.138 341.021C347.196 344.381 330.162 340.363 325.685 342.889C321.208 345.414 296.704 373.656 291.373 381.501C286.043 389.346 273.223 418.739 263.397 429.825C253.57 440.912 243.632 451.867 242.391 454.734C241.15 457.601 243.888 465.196 252.717 470.049C261.546 474.902 265.773 475.158 269.127 468.806C272.482 462.454 268.129 462.329 274.096 457.595C280.063 452.86 294.491 430.694 295.483 429.319C296.474 427.945 315.628 394.074 318.234 390.207C320.84 386.341 339.24 374.268 339.24 374.268L399.29 334.814L411.722 318C411.722 318 402.769 321.116 396.802 318.499C393.262 316.959 389.923 314.994 386.857 312.647L382.256 315.738Z" fill="black"/>
<path d="M471.523 303.283C467.231 302.375 463.087 300.865 459.215 298.799C452.999 295.445 445.292 293.821 436.463 302.54C427.634 311.259 407.371 333.801 397.426 352.732C387.481 371.664 387.849 380.133 382.381 384.611C376.913 389.089 374.077 394.619 382.505 400.557C390.934 406.495 394.439 404.292 397.551 400.807C400.662 397.322 416.692 376.707 416.692 376.707C416.692 376.707 415.451 352.857 418.182 349.622C420.913 346.387 429.873 344.697 431.967 347.814C434.061 350.931 434.954 360.307 434.954 360.307C434.954 360.307 455.093 341.37 462.523 331.033C469.954 320.696 473.026 314.902 471.477 303.257L471.523 303.283Z" fill="black"/>
<path d="M446.973 176.478C446.774 179.524 445.976 182.5 444.624 185.236C443.272 187.971 441.393 190.412 439.096 192.417C431.272 199.197 427.051 195.238 427.051 195.238C427.051 195.238 428.364 186.256 430.477 184.06C432.591 181.863 446.973 176.478 446.973 176.478Z" fill="#FFFCF0"/>
<path d="M478.009 267.63C478.009 267.63 478.094 284.727 467.105 287.002C456.117 289.277 448.995 288.146 448.995 288.146C448.995 288.146 470.269 294.84 478.626 292.907C486.982 290.974 486.713 283.918 484.954 277.493C483.787 273.529 481.346 270.061 478.009 267.63Z" fill="#FFFCF0"/>
<path d="M317.651 228.439C317.651 228.439 310.43 241.913 300.584 241.827C290.737 241.742 287.219 236.803 287.219 236.803C287.219 236.803 298.037 251.776 308.763 252.217C319.489 252.657 322.475 245.437 323.44 240.15C324.405 234.863 322.383 228.88 317.637 228.439H317.651Z" fill="#FFFCF0"/>
<path d="M405.493 274.764C405.493 274.764 398.785 279.196 396.021 280.124C393.257 281.051 395.036 287.771 396.205 292.019C397.373 296.267 400.262 298.864 405.926 296.832C411.591 294.8 414.112 292.617 412.891 289.369C411.67 286.121 405.506 274.758 405.506 274.758L405.493 274.764Z" fill="#FFFCF0"/>
<path d="M338.978 7.58436e-06C338.247 -0.0034017 337.518 0.0604313 336.799 0.190702C333.615 0.782513 287.068 16.551 280.425 19.293C271.235 23.0806 269.922 25.1191 269.193 36.7252C268.78 43.1759 268.491 44.616 267.369 45.747C265.353 47.7591 262.892 53.0197 261.264 58.7602C260.082 62.9424 259.82 65.4937 259.859 72.4508C259.918 82.7286 261.277 88.6006 265.642 97.4384C273.053 112.431 285.716 123.268 302.185 128.712C305.92 129.949 309.097 131.033 309.242 131.126C309.386 131.218 308.165 134.177 306.511 137.701C304.857 141.226 301.404 149.13 298.818 155.258C296.232 161.387 293.008 168.929 292.812 169.251C292.784 169.291 292.746 169.323 292.703 169.344C292.659 169.365 292.61 169.374 292.562 169.37L295.063 174.321C295.039 174.09 295.065 173.856 295.137 173.635C295.209 173.414 295.327 173.211 295.483 173.039C296.225 172.191 300.59 162.209 312.517 134.42L313.568 131.961H321.898C334.856 131.961 342.818 129.83 353.281 123.603C361.093 118.961 367.585 112.576 372.922 104.31C385.131 85.4049 386.09 63.8104 375.252 51.79L372.974 49.265V40.1511C372.974 35.1273 372.646 29.847 372.246 28.4069C370.88 23.37 365.301 19.5363 359.386 19.5166C357.417 19.5166 357.043 19.0958 353.281 12.6582C348.168 3.87966 343.967 0.0789157 338.978 7.58436e-06ZM338.322 4.01117C342.969 3.94541 345.805 6.90447 349.875 14.0851L352.566 18.8525L323.224 18.7999L293.882 18.7473L308.979 13.6511C317.283 10.8499 326.296 7.65409 329 6.55596C332.899 4.96464 335.853 4.06378 338.302 4.01117H338.322ZM334.744 23.2319C362.905 23.1924 363.784 23.5672 366.252 26.2698C368.405 28.5976 369.535 33.6477 369.259 39.5658C369.121 42.4591 368.74 54.2691 368.419 65.8094C367.644 93.2299 368.465 91.9871 350.991 92.2699C345.214 92.3619 334.724 92.9274 327.687 93.493C313.299 94.6832 284.587 95.3407 281.081 94.5648C274.425 93.0984 273.729 91.1783 273.132 72.773C272.876 64.6389 272.633 52.1583 272.6 45.05C272.554 33.8056 272.705 31.7408 273.769 29.2683C276.335 23.2582 275.082 23.4226 320.893 23.2779L334.718 23.245L334.744 23.2319ZM339.195 30.6887C337.166 30.6887 333.169 34.884 332.21 38.0271C330.897 42.3145 332.978 47.6868 336.497 49.1137C337.255 49.4208 338.053 49.62 338.866 49.7055C340.232 49.745 345.168 47.4369 345.752 46.4835C346.087 45.9377 346.776 46.2336 348.056 47.4567C351.765 51.0207 357.844 49.9423 361.067 45.1552C363.935 40.8876 362.13 35.5218 356.918 32.8389C355.841 32.28 352.894 29.8207 350.012 32.4312L347.387 34.8248L345.929 33.457C344.062 31.7807 341.673 30.8027 339.168 30.6887H339.195ZM339.949 34.7524C341.577 34.7985 344.124 37.3038 344.124 39.0003C344.093 40.0174 343.847 41.0164 343.404 41.9319C342.96 42.8475 342.329 43.659 341.551 44.3135C340.12 45.4182 337.882 45.3524 336.917 44.1885C334.947 41.8542 336.871 35.3245 339.641 34.7788C339.743 34.7655 339.847 34.7655 339.949 34.7788V34.7524ZM352.244 36.0281C352.904 36.0966 353.547 36.2744 354.148 36.5542C358.086 38.0666 359.084 41.5057 356.176 43.7874C354.109 45.4182 352.461 45.5234 351.056 44.1162C349.848 42.9063 349.743 40.9007 350.748 38.0206C351.187 36.6134 351.503 36.0413 352.218 36.0281H352.244ZM296.021 38.0008C294.801 38.0008 293.31 38.0337 291.492 38.0929C282.138 38.3691 279.598 39.0858 281.18 40.9862C282.493 42.5709 300.951 41.9528 302.632 40.276C302.888 40.0196 302.507 39.362 301.785 38.8162C301.063 38.2704 299.691 37.9877 296.021 38.0008ZM152.054 50.5406C138.204 50.5406 108.73 51.6256 106.8 52.3687C104.175 53.3813 101.418 56.0708 99.6914 59.2929C98.4573 61.5944 98.2538 63.2383 98.0569 72.2075L97.8074 82.4919L95.0767 83.7084C91.3876 85.3588 83.1429 93.6902 79.224 99.7201C74.5476 106.992 70.9563 114.91 68.5637 123.222C67.067 128.831 66.8504 130.968 66.8307 139.845C66.8307 151.024 67.8679 156.981 71.8064 167.943C76.2636 180.351 87.7641 193.844 100.033 201.078C109.951 206.923 119.929 209.396 135.998 209.994C148.693 210.468 153.623 209.665 163.082 205.582C175.161 200.374 181.134 195.396 188.132 184.691C190.547 181.002 192.569 177.984 192.635 177.99C192.7 177.997 197.394 178.865 203.072 179.963C220.198 183.198 250.702 187.111 259.702 187.196H261.671L266.062 185.441L264.828 182.074C264.618 181.515 261.546 182.646 254.627 182.074C238.256 180.719 197.958 174.742 195.694 173.341C195.149 173.006 195.201 172.283 195.877 170.645C196.389 169.416 197.669 165.457 198.72 161.841C200.453 155.844 200.623 154.39 200.597 145.401C200.597 135.078 199.396 128.739 196.435 122.834C195.599 120.909 195.034 118.877 194.755 116.797C194.499 114.824 193.442 106.539 192.385 98.4247C191.112 88.5612 190.166 83.3533 189.53 82.7154C188.893 82.0776 186.353 81.6699 180.648 81.4003C176.29 81.2227 172.699 81.0386 172.673 80.9992C172.646 80.9597 172.41 76.1858 172.154 70.386C171.59 57.4846 170.841 55.5513 165.59 52.8553C163.364 51.7811 160.993 51.0368 158.553 50.6459C157.555 50.5209 155.192 50.4683 151.989 50.4683L152.054 50.5406ZM268.242 50.7445L269.023 66.8549C269.955 85.8717 270.263 88.6401 271.885 92.3159C274.51 98.3326 280.123 99.4768 303.616 98.8258C312.701 98.576 322.653 98.0959 325.712 97.7671C328.771 97.4384 337.941 96.9715 346.061 96.7413C362.334 96.2745 364.743 95.8997 367.723 93.3877C371.353 90.3366 371.76 88.3837 372.37 71.5434C372.672 63.0936 373.027 56.0576 373.178 55.9195C373.329 55.7815 374.359 57.6687 375.488 60.1148C383.103 76.6724 375.403 100.884 357.765 115.942C350.971 121.729 340.146 126.523 331.331 127.64C320.756 128.956 312.878 128.298 305.074 125.438C290.947 120.177 282.21 114.187 275.127 104.81C263.568 89.4884 260.463 70.945 266.751 54.6899L268.242 50.7445ZM149.993 54.874C160.424 54.874 161.356 55.1568 163.292 56.1891C164.756 56.9519 166.332 58.4052 166.798 59.4244C167.658 61.3182 169.003 79.2369 168.367 80.2693C168.17 80.5849 163.397 80.7625 157.759 80.6704C137.659 80.3416 134.495 80.5191 132.014 82.1894C130.379 83.2809 129.467 84.6355 128.594 87.2461C127.484 90.5799 127.458 92.2238 128.121 112.234C128.909 135.998 129.355 139.608 131.817 141.923C133.327 143.337 134.252 143.521 142.129 143.896C146.888 144.139 154.995 144.369 160.142 144.402L169.496 144.461V150.872C169.496 161.229 168.327 172.697 167.041 175.281C164.769 179.884 164.034 180.062 148.076 180.68C140.199 180.982 129.592 181.206 124.537 181.173C108.52 181.074 105.501 180.22 102.875 174.998C101.562 172.46 101.562 171.283 101.733 118.027C101.825 88.0878 102.166 62.9424 102.488 62.0941C103.551 59.2929 106.525 56.3864 108.993 55.7289C110.306 55.3803 122.482 55.0253 136.024 54.9398C141.991 54.8937 146.521 54.8674 149.993 54.874ZM308.297 61.2327C307.975 61.2327 307.561 61.4563 307.063 61.9626C306.006 63.0147 305.612 68.3015 306.406 70.4189C306.5 70.6895 306.665 70.9293 306.885 71.1124C307.105 71.2955 307.371 71.415 307.653 71.4579C308.861 71.4579 309.294 69.9126 309.294 65.5398C309.308 62.6465 309.006 61.2787 308.297 61.2327ZM330.7 61.6601C330.136 61.6601 329.611 62.2651 329.388 63.4027C328.876 65.7699 329.959 71.4776 331.055 72.1549C331.253 72.297 331.481 72.3901 331.722 72.4267C331.963 72.4633 332.209 72.4422 332.44 72.3653C333.175 71.905 333.096 65.3096 332.322 63.2843C331.902 62.173 331.291 61.6338 330.727 61.6601H330.7ZM295.641 61.7587C295.468 61.7669 295.301 61.8212 295.157 61.9161C295.013 62.0109 294.896 62.1428 294.82 62.298C294.164 63.3895 293.993 69.7087 294.643 70.3663C296.002 71.7209 297.492 69.0512 297.492 65.2504C297.492 63.3172 296.527 61.7719 295.641 61.7587ZM130.058 61.9166C129.159 61.8927 128.26 61.9521 127.373 62.0941C124.458 62.8503 124.32 65.0137 127.15 65.6318C128.233 65.862 133.839 66.0198 139.622 65.9672C148.739 65.8817 150.124 65.7305 150.321 64.7967C150.352 64.473 150.273 64.1484 150.098 63.8744C149.924 63.6004 149.662 63.3927 149.356 63.2843C147.604 62.6136 135.677 61.864 130.058 61.9166ZM284.055 61.9166C282.453 61.9166 281.83 65.7568 283.096 70.3203C283.595 72.122 284.101 72.7664 284.895 72.6152C286.523 72.2996 286.864 64.1523 285.302 62.6004C284.982 62.2346 284.537 62.0004 284.055 61.9429V61.9166ZM341.676 62.5741C341.215 62.6749 340.798 62.9215 340.488 63.2777C339.628 64.1391 339.464 65.0203 339.792 67.0456C339.941 68.2784 340.327 69.4708 340.928 70.557C342.194 72.0826 343.435 70.2216 343.435 66.8023C343.442 64.0339 342.746 62.4689 341.676 62.6267V62.5741ZM352.769 62.9621C352.66 62.9525 352.55 62.9525 352.441 62.9621C351.319 63.1199 350.938 63.6788 350.774 65.3951C350.657 66.6734 350.721 67.9618 350.964 69.2221C351.535 71.5105 353.406 70.8792 354.109 68.1635C354.903 65.1781 354.332 63.0542 352.769 63.0147V62.9621ZM313.496 80.6572C308.848 80.6572 302.586 80.8742 295.897 81.2688C285.335 81.8869 282.821 82.5839 284.081 84.5566C284.468 85.1747 287.751 85.2799 298.109 84.9906C315.281 84.5106 322.745 83.2875 321.438 81.1636C321.208 80.7953 318.156 80.6112 313.528 80.6309L313.496 80.6572ZM137.39 84.2936L146.298 84.3462C152.369 84.3462 162.59 84.629 169.003 84.9117L180.668 85.4115L178.285 88.0417C176.689 89.9344 175.339 92.0224 174.268 94.2557C172.889 97.3003 172.666 98.5891 172.863 102.929C173.178 109.748 175.312 113.371 181.318 117.277C190.547 123.268 192.346 125.826 192.937 133.591C193.265 137.945 193.179 138.431 191.945 139.095C190.225 140.016 160.962 140.542 150.124 139.851C145.786 139.575 140.541 139.306 138.453 139.26C135.171 139.181 134.587 138.97 134.095 137.675C133.254 135.446 131.147 94.5977 131.686 90.9876C132.631 84.6618 137.39 84.287 137.39 84.287V84.2936ZM186.195 86.5885C186.76 86.5885 190.56 113.707 190.508 117.33C190.508 118.415 189.996 118.342 186.891 116.791C183.55 115.12 179.572 111.274 177.963 108.144C176.198 104.724 176.322 99.5952 178.265 95.4657C179.782 92.2304 184.83 86.5885 186.195 86.5885ZM97.1379 87.2461C97.4004 87.2461 97.6105 106.559 97.6105 130.152V173.059C97.6105 179.753 104.72 183.816 110.503 184.592C115.603 185.283 146.698 185.349 156.8 184.592C165.281 183.981 167.697 182.942 169.962 178.911C172.167 174.966 172.889 170.277 173.342 156.922L173.756 144.757L182.289 144.283C193.179 143.672 194.84 143.363 195.995 141.706C196.888 140.437 196.974 140.568 197.387 143.882C197.606 146.709 197.522 149.55 197.138 152.358C196.416 157.553 192.779 168.863 190.153 174.058C187.081 180.134 180.53 189.182 176.624 192.7C170.172 198.546 158.133 204.227 148.483 205.976C142.668 207.029 142.694 207.029 131.745 205.838C120.159 204.582 113.174 202.814 106.039 199.348C84.075 188.669 70.9203 166.529 70.8743 140.167C70.8268 135.97 71.1585 131.777 71.8655 127.64C74.9376 113.444 83.8978 97.6554 93.2059 90.0605C95.1095 88.502 96.8819 87.2329 97.1444 87.2329L97.1379 87.2461ZM157.444 99.7398C154.162 99.7398 153.761 99.9042 152.133 102.041C149.219 105.862 148.287 108.834 148.667 113.049C149.225 119.145 152.606 124.037 157.463 125.714C164.526 128.173 171.458 122.163 171.458 113.595C171.458 105.027 166.03 99.7398 157.444 99.7398ZM157.214 103.324C158.309 103.408 159.386 103.652 160.411 104.047C167.986 106.572 169.909 115.929 163.831 120.723C161.205 122.768 158.579 122.498 156.019 119.914C154.211 118.027 153.062 115.605 152.742 113.009C152.423 110.413 152.951 107.784 154.247 105.513C155.153 103.975 155.888 103.31 157.214 103.324ZM181.351 132.04C178.594 132.04 175.344 132.493 174.471 133.223C173.598 133.953 173.572 134.302 174.209 135.064C174.845 135.827 175.929 135.932 179.303 135.584C186.753 134.821 188.079 134.137 185.151 132.566C184.495 132.204 182.998 132.04 181.351 132.04ZM135.401 158.921C130.346 158.921 129.414 164.181 129.198 165.155C128.613 167.785 129.815 171.244 132.322 172.776C134.83 174.308 136.143 174.354 138.598 173.085C142.064 171.29 143.541 165.944 141.604 162.196C140.318 159.749 138.749 158.921 135.381 158.921H135.401ZM135.874 163.478C137.528 163.399 138.841 165.352 137.777 167.509C136.996 169.08 134.784 169.942 133.839 169.028C133.084 168.278 133.3 165.168 134.16 164.306C134.606 163.819 135.222 163.522 135.88 163.478H135.874ZM259.124 202.932C259.491 204.333 258.618 206.43 258.428 207.061C258.179 207.877 255.986 212.098 253.551 216.438C251.115 220.778 247.052 228.321 244.532 233.206C242.011 238.092 235.269 249.922 229.565 259.509C212.413 288.33 203.059 304.644 197.361 315.665L191.939 326.153L191.171 322.432C190.285 318.157 188.394 315.586 184.803 313.758C181.574 312.108 181.561 312.088 181.39 308.018C181.101 301.304 178.915 296.589 174.905 294.058C173.664 293.275 172.817 292.184 172.797 291.362C172.758 289.192 170.06 285.753 167.277 284.312C164.691 282.997 157.68 282.011 149.96 281.932C146.153 281.893 145.845 281.781 145.864 280.413C145.864 277.474 146.521 277.257 156.085 276.895C169.292 276.389 168.176 277.007 168.176 270.247C168.176 263.671 166.62 259.456 163.68 257.957C162.262 257.234 156.538 257.148 132.729 257.49C99.4944 257.964 100.033 257.878 96.5733 263.336C94.6041 266.473 92.6873 273.601 92.6873 277.908C92.6873 280.446 92.5888 280.577 90.718 280.577C86.5629 280.577 80.6354 285.121 78.6858 289.783C77.2679 293.19 75.6465 302.461 75.6465 307.15C75.6465 310.707 75.4233 311.45 73.9398 312.831C72.3351 314.636 70.9227 316.604 69.7256 318.703C61.6319 332.473 58.5663 354.383 62.7412 368.205C69.8766 391.713 87.0618 408.731 110.109 415.103C115.787 416.681 117.822 416.918 125.207 416.878C155.809 416.714 178.377 404.917 189.05 383.474C192.989 375.583 196.114 363.484 197.407 351.253C197.803 345.698 196.966 340.125 194.958 334.932L193.554 331.644L198.234 322.372C204.03 310.865 213.332 294.617 230.53 265.762C237.856 253.499 246.724 237.974 250.223 231.266C257.352 217.655 262.071 209.291 262.57 209.304C262.642 209.304 262.885 209.554 263.187 209.909L262.931 209.179L259.124 202.932ZM531.54 246.41C528.611 246.437 525.69 246.719 522.81 247.252C520.184 247.686 516.285 247.206 516.311 247.837L516.469 252.486L523.88 251.625C532.269 250.645 537.008 250.967 542.338 253.407C551.528 257.595 555.467 264.737 555.467 277.125C555.467 285.851 549.946 342.435 548.673 346.827L547.852 349.668L529.958 349.786C512.353 349.905 512.084 349.885 512.478 348.596C513.37 345.657 514.224 335.82 513.935 331.657C513.679 327.903 513.79 327.212 514.69 327.166L525.849 326.666C534.428 326.285 536.043 326.048 536.772 325.049C537.264 324.391 537.829 320.86 538.085 316.803C538.905 304.224 537.336 302.718 522.987 302.336L513.797 302.1C513.797 302.1 506.845 306.795 501.719 307.156L505.086 307.051L508.46 306.953L508.04 310.931C507.81 313.12 507.627 316.941 507.627 319.42V323.924H505.112C503.727 323.924 502.395 323.72 502.159 323.484C501.922 323.247 501.719 319.473 501.719 315.1V307.202C498.384 306.203 492.529 305.19 489.115 304.322C489.115 304.631 486.109 305.526 482.269 305.539C477.556 305.539 474.996 305.539 474.438 304.927C474.686 306.284 474.75 307.669 474.628 309.044C477.081 308.965 479.535 309.031 481.98 309.241L488.006 309.701L487.803 311.674C487.625 313.436 487.271 313.745 484.652 314.37C480.543 315.356 480.634 317 484.816 317.257L487.934 317.454V323.957H479.683C475.14 323.957 471.339 323.668 471.149 323.3C471.083 323.194 469.127 322.958 469.18 322.642L467.867 327.16L472.377 327.475C474.851 327.653 477.05 327.962 477.26 328.172C477.47 328.383 477.654 331.578 477.674 335.274V341.994L466.915 342.178L456.15 342.356L451.161 346.466V346.584C451.346 346.412 451.572 346.29 451.817 346.229C452.224 346.229 456.813 346.229 460.955 346.268C468.077 346.341 468.622 346.446 470.801 348.116L473.112 349.885L466.876 350.306C463.449 350.536 457.896 350.76 454.535 350.799L447.203 350.871L441.223 357.059C441.065 357.217 441.446 358.848 441.131 360.347C440.816 361.846 440.363 368.987 440.146 376.129C439.877 385.078 439.523 389.089 439.024 389.03C438.525 388.971 437.606 388.807 436.766 388.642L435.236 388.359L435.689 375.425L436.142 362.491L436.424 356.441C436.424 355.948 435.892 354.205 435.682 352.535C435.144 348.202 433.51 346.19 429.676 345.118C423.768 343.474 418.484 344.815 416.548 348.465C415.57 350.299 415.333 352.778 415.123 363.74L414.861 376.786L415.517 381.705L415.799 384.894C415.955 386.038 415.986 387.196 415.891 388.346C415.451 388.925 409.097 389.194 409.097 388.636C409.107 388.562 409.134 388.493 409.176 388.432H409.137L405.283 393.225L411.618 392.805C424.523 391.943 440.592 392.495 440.592 393.791C440.592 394.107 439.404 394.836 437.967 395.422C434.278 396.901 433.405 398.354 434.146 401.78C435.472 407.203 437.246 412.506 439.45 417.634C441.19 421.678 441.328 422.454 440.684 424.618C440.231 426.355 439.988 428.141 439.962 429.937V432.818H433.89C422.922 432.864 421.248 433.791 420.486 440.261C420.263 442.116 419.639 444.003 419.095 444.456C417.998 445.364 399.166 445.772 392.765 445.035L389.221 444.627L389.634 448.329L391.656 448.777C392.772 449.02 399.533 449.23 406.754 449.23H419.81L419.39 457.055C419.16 461.363 418.97 466.985 418.97 469.549V474.211L413.462 474.31C407.364 474.415 405.021 475.25 402.96 478.045C401.647 479.794 401.568 480.938 401.26 498.43L400.925 518.623L405.014 518.946L405.467 512.876C405.584 511.359 405.779 509.849 406.051 508.352C406.124 508.3 409.196 508.109 412.872 507.945L419.561 507.636L420 511.752C420.237 514.021 420.237 517.012 420 517.367C419.939 517.437 419.863 517.491 419.777 517.525L424.372 518.117L424.11 513.514C423.985 511.417 424.011 509.569 424.208 509.378C424.405 509.187 427.917 509.148 431.993 509.26L439.411 509.464L439.214 513.205L439.017 517.729L443.934 518.051V515.921C443.934 514.744 443.737 510.555 443.507 507.57L443.087 502.145H453.124V505.275C453.124 508.767 454.83 513.014 456.951 514.908C457.725 515.566 458.053 517.236 458.355 517.236L472.843 517.289C473.276 517.289 474.28 515.138 475.777 513.823C480.575 509.595 482.144 505.097 480.667 499.817C479.151 494.392 473.775 490.966 466.731 490.966H463.567V446.975L500.728 446.929C532.236 446.889 540.881 446.633 551.765 445.41C552.848 445.285 553.255 446.587 555.185 456.122C558.572 472.863 559.589 481.925 559.642 495.905C559.694 507.741 559.642 509.713 558.079 513.475C557.187 515.645 555.349 517.92 555.802 517.9L562.563 517.624C563.928 517.565 561.191 517.144 561.25 516.756C561.388 515.994 561.69 515.271 562.136 514.639C562.491 514.198 563.094 509.233 563.449 504.979C564.631 491.584 562.195 468.576 557.764 451.229C557.151 449.064 556.647 446.87 556.255 444.654C556.34 444.654 558.112 443.753 560.193 442.681C565.661 439.946 570.446 434.448 574.451 426.308C578.58 417.924 580.214 411.525 581.126 400.189C583.05 376.24 579.243 361.189 569.501 354.251C568.031 353.193 567.453 352.39 567.84 351.924C568.464 351.161 569.665 345.723 575.061 319.308C579.256 298.805 579.695 295.866 579.695 289.06C579.695 279.361 577.149 271.773 571.497 264.566C566.685 258.424 558.48 253.137 550.754 251.204C548.45 250.625 544.019 249.29 540.907 248.232C537.906 247.123 534.744 246.514 531.547 246.43L531.54 246.41ZM554.778 256.879C556.412 256.879 565.444 263.842 567.768 266.893C575.481 277.013 576.774 286.877 572.895 305.861C572.009 310.201 569.613 321.879 567.644 331.802C565.674 341.725 563.902 349.931 563.803 350.023C563.39 350.431 558.145 350.681 555.27 350.451C552.69 350.227 552.178 349.977 552.441 349.063C552.749 348.004 553.301 342.869 557.134 305.532C560.193 275.685 560.009 267.893 556.09 260.423C555.06 258.49 554.476 256.898 554.784 256.898L554.778 256.879ZM159.61 261.1C162.045 261.054 163.338 262.698 164.205 266.703C165.354 272.069 165.662 271.779 158.205 272.266C154.496 272.509 150.63 272.871 149.599 273.075C147.886 273.417 147.768 273.318 148.195 271.898C148.956 269.359 152.481 264.178 154.332 262.876C155.612 262.077 157.023 261.514 158.5 261.212C158.858 261.151 159.221 261.12 159.584 261.12L159.61 261.1ZM126.677 261.81C139.044 261.81 149.16 261.995 149.16 262.218C148.988 262.683 148.679 263.085 148.273 263.369C146.685 264.684 143.363 272.864 142.313 278.052C141.714 281.142 141.369 284.276 141.282 287.423V291.723H129.467V288.935C129.467 281.235 121.472 276.948 113.942 280.597C112.246 281.374 110.743 282.518 109.542 283.947C108.341 285.377 107.472 287.056 106.997 288.863L106.223 291.743H95.9038L96.2976 285.003C97.0722 271.779 98.8315 265.46 102.422 263.02C104.024 261.929 106.046 261.83 126.651 261.83L126.677 261.81ZM313.023 265.171C313.023 265.171 313.023 265.171 313.023 265.21C312.229 266.482 311.319 267.677 310.305 268.781C307.68 271.694 304.082 278.559 302.12 284.405C301.371 286.621 299.159 295.761 297.196 304.71C295.234 313.66 292.286 326.91 290.632 334.143C288.978 341.376 287.639 347.814 287.639 348.445C287.639 349.366 287.022 349.609 284.521 349.668C274.675 349.892 270.939 350.01 258.428 350.49C250.846 350.779 243.658 351.325 242.451 351.693C239.228 352.68 236.149 355.705 234.383 359.584C232.841 363.017 232.821 363.221 232.841 386.058C232.841 407.304 232.965 409.573 234.291 415.589C236.195 424.19 238.407 428.563 243.442 433.62L248.628 438.551L251.555 435.691H251.516C249.895 435.691 243.809 428.412 241.801 424.631C237.862 417.194 236.878 410.368 236.589 387.682C236.3 365.792 236.819 361.314 240.035 357.835C242.234 355.455 245.129 354.981 260.299 354.547L273.985 354.14L276.125 356.408C277.463 357.926 278.447 359.723 279.007 361.669C279.965 365.463 279.965 373.985 279.007 382.606C278.652 385.782 279.164 394.869 279.86 392.989L283.753 382.52V371.19C283.753 363.299 282.624 356.822 281.055 355.849C280.888 355.758 280.743 355.631 280.629 355.478C280.516 355.324 280.437 355.148 280.399 354.962C280.399 354.416 305.684 353.607 306.656 353.166L306.846 353.081L310.489 348.965H302.422C299.622 348.939 296.823 349.078 294.039 349.379L291.577 349.786L292.004 347.564C292.234 346.347 293.435 340.903 294.63 335.478C295.825 330.053 298.608 317.48 300.754 307.531C305.894 283.701 308.297 276.981 313.988 270.536L316.614 267.334L313.023 265.171ZM120.323 283.267C121.537 283.267 122.2 283.727 123.506 285.036C124.99 286.522 125.476 287.666 125.476 289.395V291.743H117.599C113.266 291.743 109.722 291.585 109.722 291.388C109.966 290.598 110.296 289.837 110.706 289.119C112.111 286.39 115.807 283.793 118.852 283.385C119.328 283.312 119.809 283.27 120.29 283.26L120.323 283.267ZM91.4926 284.654C91.6056 284.645 91.7185 284.672 91.8143 284.733C92.0046 284.931 91.9587 286.561 91.7158 288.363L91.2629 291.651L87.8692 292.118C86.2387 292.323 84.6274 292.659 83.051 293.124C81.7381 293.63 81.6594 293.545 82.2567 291.809C83.1626 289.211 86.4447 286.042 89.1623 285.148C89.9105 284.869 90.6958 284.703 91.4926 284.654ZM145.201 285.805L151.601 286.2C161.218 286.791 164.966 287.581 166.765 289.382C167.625 290.244 168.222 291.204 168.078 291.513C167.933 291.822 162.564 291.993 156.118 291.894C145.825 291.736 144.453 291.592 144.794 290.691C145.066 289.728 145.199 288.732 145.188 287.732V285.805H145.201ZM104.254 295.965C110.903 295.965 119.548 296.024 130.432 296.136L171.787 296.563L173.848 298.621C176.368 301.14 177.222 304.039 177.786 311.963L178.213 318.052H169.391C155.75 318.052 150.223 320.025 147.02 326.14C145.805 328.442 145.562 329.987 145.549 335.478C145.549 341.619 145.661 342.29 147.551 345.67C151.45 352.64 157.089 354.876 170.743 354.876H178.351L178.003 361.452C177.694 367.33 177.484 368.205 176.034 369.658C175.01 370.684 173.112 371.532 170.874 371.96C169.362 372.284 167.824 372.469 166.279 372.512C165.695 372.453 149.271 372.196 129.775 371.947C110.279 371.697 92.7004 371.289 90.718 371C84.6724 370.164 82.3092 368.336 80.8257 363.345C79.4013 358.552 78.3379 308.294 79.5654 303.895C80.6288 300.094 83.1757 297.319 86.4907 296.431C87.6197 296.109 93.1731 295.958 104.254 295.965ZM518.458 306.269C519.626 306.269 520.9 306.269 522.212 306.315C534.277 306.597 534.186 306.538 533.956 314.587C533.719 323.135 534.14 322.649 526.624 322.649C523.092 322.649 518.458 322.833 516.331 323.05C512.044 323.49 511.46 323.214 511.48 320.735C511.48 316.185 511.427 316.224 520.67 315.974C529.262 315.744 531.507 315.113 529.545 313.482C528.888 312.923 525.875 312.614 520.394 312.555L512.248 312.456L511.887 309.826C511.69 308.379 511.775 306.946 512.077 306.643C512.379 306.341 514.919 306.269 518.438 306.269H518.458ZM497.688 309.432V323.97H491.354L491.557 316.901L491.761 309.833L494.728 309.635L497.688 309.432ZM182.322 316.619C182.933 316.56 183.76 317.158 184.738 318.651C186.399 321.176 187.081 324.957 187.101 329.593C187.14 338.45 186.444 348.701 185.348 349.773C184.567 350.556 168.728 350.917 163.095 350.286C153.833 349.241 149.507 344.625 149.54 335.82C149.54 328.106 151.569 324.937 157.352 323.438C158.789 323.063 163.955 322.563 168.833 322.32C178.823 321.833 180.878 321.209 181.18 318.552C181.311 317.408 181.712 316.691 182.322 316.632V316.619ZM74.6225 317.066L75.0951 336.135C75.6334 357.559 76.2833 363.753 78.4429 368.001C80.1955 371.434 83.7731 373.584 89.4052 374.577C94.7944 375.53 128.377 376.595 150.998 376.549C172.837 376.484 175.745 376.096 178.791 372.828C181.567 369.842 181.961 368.455 181.961 361.596V355.06L184.541 354.646C188.873 353.988 190.199 351.417 191.105 342.152L191.558 337.503L192.339 340.133C193.993 345.71 192.897 358.138 189.753 369.395C187.889 376.056 182.709 386.643 179.06 391.233C170.526 401.971 156.144 409.158 137.902 411.788C114.848 415.109 98.4113 410.066 83.458 395.086C72.627 384.243 65.7345 370.099 64.7039 356.54C63.9359 346.584 66.8176 333.012 71.8852 322.708L74.6225 317.066ZM480.897 327.857L484.836 328.047L488.807 328.245L488.754 333.834C488.754 336.905 488.341 340.087 487.908 340.896C487.291 342.053 486.542 342.376 484.494 342.376C482.978 342.376 481.763 342.034 481.606 341.56C481.316 339.159 481.15 336.745 481.107 334.327L480.897 327.857ZM492.279 327.916H500.465C510.311 327.916 510.121 327.738 509.655 336.957L509.353 343.04L504.673 342.921C495.397 342.698 491.446 342.132 491.682 341.067C492.562 337.161 492.949 332.953 492.634 330.638L492.279 327.916ZM165.078 329.888C163.857 329.97 162.669 330.313 161.592 330.895C157.916 332.801 158.258 337.569 162.249 340.271C164.73 341.942 166.896 341.817 169.056 339.877C171.071 338.069 171.544 336.01 170.513 333.538C169.482 331.066 167.493 329.77 165.078 329.875V329.888ZM164.165 333.176C165.163 333.176 166.949 335.221 166.673 336.043C166.286 337.207 164.526 337.28 163.607 336.168C162.688 335.057 163.095 333.176 164.165 333.176ZM494.866 346.229C497.038 346.229 498.469 346.341 498.634 346.472C499.421 347.084 497.498 354.021 495.351 358.223C494.452 359.999 493.5 361.425 493.238 361.399C492.975 361.373 491.131 359.65 489.148 357.565C486.442 354.877 483.517 352.418 480.405 350.214L475.271 346.65L486.641 346.321C489.765 346.236 492.673 346.203 494.846 346.229H494.866ZM506.734 346.393C508.552 346.393 508.828 347.531 507.003 349.182C506.265 349.814 505.346 350.196 504.377 350.273C502.336 350.273 502.408 347.288 504.43 346.742C505.187 346.518 505.971 346.4 506.76 346.393H506.734ZM424.628 348.563C426.873 348.563 429.532 349.149 430.359 349.977C431.186 350.806 432.446 357.388 431.928 357.822C431.816 357.907 428.888 358.17 425.416 358.407L419.101 358.835L418.734 355.698C418.313 352.075 419.39 349.911 422.016 348.899C422.865 348.634 423.753 348.52 424.641 348.563H424.628ZM107.194 351.088C101.549 351.134 94.4859 351.49 92.8514 351.963C91.2169 352.436 90.8362 354.514 92.195 355.146C93.324 355.672 112.249 354.981 114.678 354.324C117.303 353.607 117.165 352.134 114.349 351.384C113.457 351.141 110.581 351.062 107.194 351.088ZM529.65 353.666C545.502 353.725 562.681 354.856 565.372 356.224C569.967 358.578 573.991 364.628 576.249 372.663C577.969 378.798 577.949 402.175 576.216 409.77C572.934 424.111 566.291 435.112 558.427 439.176C553.649 441.649 545.614 442.339 517.729 442.674C503.288 442.845 486.523 443.076 480.477 443.187C474.431 443.299 469.482 443.273 469.482 443.122C470.272 441.96 471.149 440.861 472.107 439.834C475.245 436.257 478.901 429.017 480.247 423.717C481.056 419.831 481.656 415.904 482.046 411.953L482.879 404.003L485.781 402.754C487.619 401.392 488.748 399.505 488.282 396.428C487.343 390.306 486.372 384.657 484.205 380.337C482.801 377.529 482.584 376.221 482.584 370.395C482.584 366.502 482.164 362.063 481.58 359.828C481.035 357.717 480.713 355.882 480.871 355.698C481.343 355.225 491.032 364.733 491.465 366.094C492.516 369.382 496.618 365.647 499.756 358.486C501.627 354.225 500.964 354.389 519.068 353.784C522.39 353.679 525.974 353.633 529.637 353.646L529.65 353.666ZM475.823 354.172L477.221 358.966C478.115 362.049 478.592 365.238 478.639 368.448V373.143L473.873 373.387C467.499 373.709 463.193 375.944 455.828 382.77C452.671 385.703 449.021 388.905 447.721 389.898C446.882 390.6 445.966 391.204 444.991 391.7C443.461 391.7 443.724 366.942 445.332 359.15L446.146 355.205L457.305 355.08C463.443 355.008 470.118 354.777 472.134 354.56L475.823 354.172ZM385.774 357.395L381.18 358.052C373.604 359.177 365.76 359.663 366.042 359.006L358.29 363.227C358.874 363.595 359.038 366.199 358.769 369.803C358.539 372.966 358.297 375.622 358.231 375.721C357.518 375.99 356.779 376.184 356.025 376.3L353.938 376.714L354.351 371.539C354.555 368.909 355.841 364.2 355.08 364.897L350.17 369.349L350.236 369.316C350.4 369.316 350.636 370.947 350.754 372.933L350.984 376.556H347.958C345.874 376.584 343.792 376.72 341.722 376.964C339.634 377.233 338.774 377.161 339.155 376.753H339.09L331.37 382.165C332.922 381.621 334.551 381.328 336.195 381.297L340.79 380.968L340.514 384.835L340.245 388.708L331.331 388.885C325.803 389.004 322.666 388.846 322.443 388.445L319.699 393.133C320.847 392.246 331.219 391.956 330.858 392.831C330.733 393.107 329.604 394.725 328.337 396.421L326.04 399.505H320.953C318.156 399.505 315.865 399.347 315.865 399.117L315.76 399.268L313.24 403.181L318.163 403.141C320.867 403.141 323.079 403.273 323.06 403.47C322.823 404.059 322.495 404.607 322.088 405.094C321.379 406.035 321.32 406.587 321.858 407.232C322.889 408.481 323.742 408.356 329.243 406.166L334.127 404.194L347.479 404.595L360.824 404.989L365.333 398.604C363.791 400.63 363.298 400.853 360.384 400.853H357.141L357.338 397.401C357.45 395.501 357.765 394.021 358.034 394.113C359.616 394.259 361.205 394.314 362.793 394.277C363.893 394.235 364.995 394.321 366.075 394.534L366.869 390.339H359.563C355.546 390.339 351.87 390.082 351.397 389.78C350.925 389.477 350.479 387.616 350.38 384.914L350.223 380.6L356.787 380.219C360.417 380.008 366.108 379.758 369.436 379.666L375.482 379.502L380.254 374.478V374.268C379.689 375.07 378.941 375.228 377.123 375.228C375.473 375.24 373.826 375.385 372.2 375.662C370.06 376.089 370.053 376.083 370.48 373.932C370.782 371.833 370.927 369.714 370.913 367.593C370.913 363.786 371.038 363.392 372.39 363.122C373.919 362.826 382.781 361.807 383.917 361.767L383.982 361.656L385.774 357.395ZM98.2932 360.952C97.7068 360.92 97.1192 360.984 96.5537 361.143C94.6303 361.754 95.2999 363.661 97.6105 364.174C99.4091 364.569 102.507 364.319 103.098 363.727C103.236 363.589 103.184 363.069 102.987 362.55C102.678 361.721 100.276 361.005 98.2997 360.952H98.2932ZM432.216 362.267L431.901 367.133C431.724 369.809 431.468 372.104 431.324 372.229C429.34 372.573 427.336 372.793 425.324 372.887L419.58 373.334L419.449 370.046C419.383 368.218 419.311 365.818 419.285 364.707L419.246 362.688L425.731 362.484L432.216 362.267ZM365.373 363.431H367.657L367.526 369.678L367.395 375.925H361.782L362.183 370.5C362.708 363.424 362.708 363.424 365.379 363.424L365.373 363.431ZM429.302 376.688C429.939 376.629 430.58 376.667 431.206 376.799C431.396 376.997 431.298 379.614 430.996 382.619L430.431 388.083L425.016 388.274L419.6 388.465V377.391L425.226 376.918C426.775 376.786 428.219 376.707 429.302 376.688ZM474.385 377.575C478.324 377.575 478.324 377.575 479.814 380.278C481.645 383.566 483.7 391.404 484.022 396.283L484.258 399.887L481.245 400.327C475.632 401.142 470.919 404.003 463.863 410.848C459.813 414.794 456.091 417.799 454.246 418.621C452.332 419.432 450.329 420.014 448.279 420.357C445.654 420.718 445.22 420.587 444.341 419.206C443.461 417.825 437.323 400.34 437.323 399.268C437.323 399.071 437.98 398.894 438.8 398.894C442.516 398.894 449.448 394.291 459.064 385.413C465.51 379.495 469.219 377.595 474.372 377.575H474.385ZM345.726 380.593C346.652 380.547 346.763 381.021 346.763 383.27C346.758 384.72 346.894 386.167 347.17 387.59C347.518 388.905 347.321 389.07 345.49 389.07H343.376L343.573 384.96C343.75 381.264 343.914 380.83 345.247 380.64C345.411 380.64 345.562 380.6 345.693 380.587L345.726 380.593ZM461.027 392.127C455.776 392.167 452.96 398.894 456.983 402.924C458.04 403.983 459.53 404.851 460.266 404.851C463.777 404.851 466.83 401.636 466.83 397.966C466.83 395.994 463.948 392.515 462.044 392.206C461.691 392.148 461.333 392.122 460.974 392.127H461.027ZM335.65 393.015H341.558C345.995 393.015 347.413 393.219 347.21 393.83C347.059 394.284 343.415 396.152 339.116 397.98C328.679 402.418 328.83 402.359 329.401 401.392C329.663 400.945 331.173 398.874 332.755 396.789L335.65 393.015ZM477.438 394.33C475.245 394.33 473.033 395.816 473.676 396.855C474.32 397.894 477.746 397.782 478.928 396.579C480.3 395.198 479.702 394.33 477.438 394.33ZM353.583 395.159C353.636 395.159 353.682 395.159 353.695 395.159C353.859 395.316 353.793 396.664 353.551 398.164L353.117 400.879L347.787 400.833L342.457 400.794L345.155 399.591C347.037 398.714 348.865 397.726 350.629 396.632C351.536 395.992 352.531 395.49 353.583 395.139V395.159ZM460.2 396.303C462.117 396.303 463.147 397.914 462.274 399.545C461.401 401.175 460.869 401.235 459.754 400.117C458.48 398.834 458.775 396.303 460.2 396.303ZM444.951 400.459C444.556 400.449 444.161 400.502 443.783 400.616C443.496 400.742 443.241 400.931 443.039 401.171C442.837 401.411 442.692 401.694 442.617 401.998C442.541 402.303 442.537 402.621 442.603 402.927C442.67 403.234 442.806 403.521 443.002 403.766C444.196 404.97 447.157 403.595 447.157 401.839C447.157 401.05 446.113 400.459 444.951 400.459ZM477.989 405.522C479.171 405.522 478.343 416.497 476.676 423.066C475.147 429.069 473 433.127 468.385 438.722C466.449 441.077 464.598 443.003 464.27 443.003C463.942 443.003 463.613 438.446 463.462 432.877C463.279 423.96 463.095 422.586 461.979 421.343L460.705 419.936L465.917 414.675C471.018 409.526 476.302 405.522 478.002 405.522H477.989ZM457.2 422.816C459.373 422.895 459.629 424.401 459.629 428.602C459.629 431.89 459.399 433.087 458.808 432.982C458.355 432.91 454.798 432.752 450.898 432.633L443.809 432.423L444.006 428.662C444.196 425.012 444.262 424.9 446.172 424.716C447.255 424.624 450.275 424.059 452.881 423.473C454.291 423.091 455.74 422.87 457.2 422.816ZM443.875 436.243L446.336 436.658C448.951 436.954 451.582 437.092 454.213 437.072H459.629V449.382L451.752 449.973L443.875 450.559V436.243ZM434.626 436.526C436.424 436.526 437.908 436.691 438.499 437.006C439.706 437.664 439.936 438.321 439.936 441.372V444.963L435.177 444.838C432.551 444.779 429.013 444.614 427.3 444.476L424.182 444.233V441.471C424.182 439.952 424.425 438.348 424.714 437.894C425.219 437.085 430.661 436.5 434.612 436.533L434.626 436.526ZM352.074 442.786L344.643 443.24C340.553 443.49 330.858 443.963 323.092 444.292C306.734 444.996 286.155 445.134 285.584 444.568C285.584 444.535 285.657 444.358 285.584 444.391H285.506L282.328 447.83L287.435 448.487C292.181 449.092 338.361 448.099 348.864 447.139L352.638 446.797L352.074 442.786ZM423.525 448.461L430.254 448.724C439.91 449.105 439.936 449.112 439.936 452.137C439.924 453.667 439.788 455.193 439.529 456.7C439.175 458.496 438.82 458.765 436.411 459.054C434.921 459.232 431.409 459.554 428.613 459.765L423.525 460.153V448.461ZM142.313 452.314C139.733 452.367 137.232 456.917 133.72 462.599C128.157 471.79 125.078 482.273 124.786 493.018L124.727 498.627L120.677 494.28C117.31 490.67 116.266 489.94 114.52 489.94C109.925 489.94 109.269 496.897 112.958 507.432C113.991 510.369 115.285 513.208 116.824 515.914L118.885 519.202L123.598 519.531L120.973 515.066C116.561 507.622 112.741 494.076 115.216 494.642C115.754 494.767 118.498 497.621 121.248 500.988C126.677 507.563 127.747 508.379 129.191 506.906C129.926 506.169 129.972 505.492 129.421 503.69C129.04 502.434 128.725 498.305 128.725 494.484C128.788 485.706 130.821 477.053 134.672 469.168C137.744 462.921 141.847 457.766 142.687 459.094C143.527 460.422 143.344 469.529 142.254 485.397C141.519 495.918 141.42 501.428 141.886 506.439C142.224 509.733 142.309 513.048 142.142 516.355L141.775 519.478L145.877 519.13C147.131 519.018 145.457 516.855 147.249 512.317C150.203 504.815 156.61 496.878 155.455 502.138C155.089 505.33 154.903 508.539 154.897 511.752L154.746 519.478L159.341 519.15L159.308 508.628C159.262 495.872 159.367 496.602 157.417 495.707C155.199 494.695 151.871 496.858 148.588 501.441L146.055 504.992L145.74 502.539C145.562 501.185 145.661 496.089 145.95 491.203C146.238 486.317 146.665 477.151 146.895 470.818C147.262 460.455 147.184 459.087 146.101 457.009C145.182 455.241 144.427 452.446 142.858 452.295C142.685 452.285 142.512 452.285 142.339 452.295L142.313 452.314ZM443.875 454.182H459.629V459.442C459.629 463.217 459.379 464.821 458.756 465.058C457.318 465.604 443.789 466.373 443.514 465.939C443.369 465.709 443.369 463.782 443.514 461.652C443.658 459.521 443.796 456.963 443.822 455.97L443.875 454.182ZM439.28 463.21V475.224H431.508C427.234 475.224 423.545 475.027 423.302 474.783C422.692 474.172 422.751 464.848 423.368 464.466C423.644 464.295 427.306 463.94 431.573 463.684L439.28 463.21ZM453.977 469.964H459.819L459.373 476.342C459.123 479.847 458.861 482.766 458.782 482.826C458.257 483.227 444.052 483.726 443.684 483.358C443.428 483.102 443.225 480.169 443.225 476.842V470.785L445.686 470.378C448.442 470.078 451.212 469.939 453.984 469.964H453.977ZM418.93 478.512V487.718L416.797 487.757C415.622 487.757 412.517 488.02 409.905 488.277L405.146 488.757V485.568C405.146 482.405 405.979 479.952 407.371 478.992C407.771 478.729 410.535 478.499 413.515 478.499L418.93 478.512ZM423.525 479.13L431.238 479.314L438.951 479.492L439.135 485.153L439.326 490.808L435.262 491.236C433.037 491.466 429.479 491.657 427.385 491.657H423.525V479.163V479.13ZM458.972 487.185V490.545C458.972 493.675 458.782 494.09 456.511 495.911C454.305 497.673 453.491 497.884 448.634 498.114L443.218 498.344V487.363L451.095 487.258L458.972 487.185ZM405.146 492.321H419.587V497.542C419.587 500.415 419.298 502.94 418.93 503.158C418.563 503.374 415.327 503.73 411.71 503.953L405.146 504.354V492.321ZM423.525 495.28L431.403 495.484L439.28 495.688V505.472H432.768C429.184 505.472 425.849 505.63 425.35 505.821C423.834 506.399 423.525 505.466 423.525 500.264V495.28ZM467.506 495.694C472.659 495.615 477.313 499.561 476.381 504.558C475.902 507.083 472.784 510.996 470.158 512.35C463.068 516.026 457.029 511.982 457.797 504.058C458.152 500.415 459.412 498.699 463.173 496.779C464.52 496.082 466.01 495.707 467.526 495.681L467.506 495.694ZM466.718 500.198C465.405 500.1 463.902 502.651 464.513 505.078C464.749 506.011 465.353 506.774 465.825 506.774C466.941 506.774 468.359 502.829 467.795 501.283C467.499 500.56 467.105 500.231 466.718 500.198ZM243.993 500.494L238.807 503.322C238.952 503.473 238.755 506.281 238.374 508.372C237.984 510.802 237.894 513.271 238.105 515.724L238.538 518.288H242.976L242.319 516.598C241.486 514.402 241.512 511.489 242.451 506.195C242.858 503.887 243.199 501.652 243.947 500.488L243.993 500.494Z" fill="black"/>
<path d="M431.081 95.1697C428.872 95.2621 426.714 95.8677 424.779 96.9385C420.801 98.9573 418.589 101.752 417.939 105.599C417.558 107.867 417.283 108.196 415.248 108.571C412.104 109.163 408.848 112.247 407.121 116.278C404.181 123.123 406.327 132.829 412.025 138.747L414.322 141.114V150.846C414.322 163.576 415.681 173.105 418.077 177.523C419.954 180.982 424.11 184.579 426.223 184.579C427.536 184.579 427.733 185.112 426.939 186.269C426.67 186.657 419.659 188.649 411.355 190.708C388.59 196.35 381.816 198.178 379.762 199.256C377.405 200.486 370.834 207.351 358.25 221.732C352.868 227.88 347.813 233.568 347.032 234.436L345.595 235.961L338.105 229.932C333.989 226.644 329.571 223.455 328.337 222.909C325.403 221.633 320.506 222.08 318.071 223.856L316.22 225.204L310.968 223.231C308.067 222.159 304.404 220.719 302.828 220.015L299.986 218.746L302.362 216.116C304.47 213.775 304.739 213.085 304.739 209.955C304.739 202.912 301.004 185.769 297.485 176.695C296.52 174.203 293.547 167.653 292.037 166.246C289.838 164.195 287.711 163.997 280.714 165.187C272.495 166.588 267.513 168.475 265.123 171C263.397 172.848 263.279 173.315 263.555 176.978C263.719 179.154 265.314 184.987 265.314 184.987L261.749 187.223L259.682 189.018C255.783 192.398 255.218 195.778 257.529 201.959C259.367 206.871 263.679 212.033 264.27 212.874C267.592 217.576 280.53 231.99 290.133 241.689C296.238 247.863 299.5 251.631 299.5 252.539C299.5 255.208 302.586 258.569 309.504 263.461C311.145 264.625 316.233 268.064 316.233 268.064L320.211 270.635C329.486 276.619 338.971 280.564 344.111 280.564C349.874 280.564 353.655 278.901 361.769 272.805L363.778 271.299L362.74 273.791C360.233 279.581 357.285 285.169 353.925 290.507C350.642 295.327 346.907 298.562 336.91 305.223C327.819 311.266 321.156 317.638 319.141 322.267C317.637 325.673 317.355 331.25 318.484 334.761L319.259 337.108L313.804 343.027C313.804 343.027 302.973 355.797 300.636 358.618C298.299 361.439 294.807 365.936 292.871 368.619C290.934 371.309 287.947 374.675 286.549 376.385C282.932 380.83 276.624 392.68 275.652 394.646C269.668 406.372 262.836 417.644 255.211 428.372C254.144 429.876 252.998 431.323 251.778 432.706C251.207 433.324 245.91 440.031 245.91 440.031C244.508 441.726 242.947 443.282 241.249 444.68C237.888 447.442 235.794 450.493 235.794 452.65C235.943 454.137 236.272 455.601 236.772 457.009L237.757 459.903L226.27 471.338C217.08 480.478 213.194 483.832 206.872 488.04C197.682 494.195 195.674 496.391 195.24 500.889C195.05 502.862 194.466 504.505 193.704 505.196C193.315 505.588 193.01 506.056 192.806 506.57C192.602 507.084 192.504 507.634 192.518 508.187C192.532 508.74 192.658 509.285 192.888 509.788C193.118 510.291 193.447 510.742 193.855 511.114C195.037 512.186 196.245 512.363 202.225 512.337C210.489 512.298 216.85 511.022 229.46 506.984C234.357 505.406 235.899 505.209 238.788 504.308C248.582 500.08 252.356 491.709 254.732 483.851C255.435 481.4 256.406 479.034 257.627 476.796C257.837 476.592 259.636 476.368 261.625 476.309C264.099 476.243 265.819 475.783 267.086 474.856C269.6 473.028 271.898 468.214 272.338 463.828C272.699 460.37 272.889 460.054 276.526 457.042C278.799 455.14 280.938 453.081 282.926 450.881C282.926 450.881 289.917 442.109 291.295 440.235C294.879 435.356 299.251 428.142 307.154 414.064L313.246 403.214L315.767 399.301L315.872 399.143C315.937 398.308 318.694 394.008 319.705 393.186L322.442 388.497C322.442 388.497 322.442 388.497 322.442 388.458C322.442 388.083 324.504 386.413 327.037 384.736C328.399 383.747 329.86 382.903 331.396 382.218L339.103 376.786H339.162C339.962 375.984 349.336 369.704 350.157 369.408L366.055 359.032C366.063 359.012 366.074 358.994 366.088 358.979C367.06 358.006 393.566 340.416 393.763 340.62C393.861 340.712 392.102 344.526 389.864 349.089L385.787 357.388L384.081 361.682L384.022 361.8C384.094 361.8 384.14 361.8 384.14 361.8C384.14 362.589 381.422 372.117 380.818 373.439C380.687 373.732 380.531 374.014 380.352 374.281V374.491L375.587 379.515L372.094 382.928C370.171 384.808 368.228 387.248 367.769 388.353L366.941 390.385L366.147 394.58C367.716 395.014 367.309 396.105 365.379 398.637L360.83 405.062L359.209 408.494C358.119 410.796 357.01 412.144 355.828 412.584C354.635 413.15 353.612 414.021 352.861 415.109C351.758 416.799 351.66 418.2 351.857 429.891L352.073 442.806L352.625 446.837V450.434C352.625 460.909 355.966 473.449 359.773 477.256C363.758 481.241 370.637 482.22 378.153 479.886C387.455 476.986 391.334 470.582 389.05 461.902C388.229 458.765 388.19 457.299 388.82 453.228L389.575 448.343L389.161 444.641L388 438.887C387.343 435.717 385.893 429.872 384.717 425.887C383.09 420.291 382.696 417.956 383.017 415.642C383.14 414.413 383.402 413.202 383.798 412.032C384.002 411.703 385.643 411.433 387.448 411.433C392.824 411.433 395.673 409.309 398.85 402.951C400.049 400.639 401.414 398.417 402.933 396.303L405.237 393.212L409.084 388.451H409.117C410.039 387.161 411.088 385.967 412.248 384.887L415.458 381.724L414.861 376.786L407.495 385.131C403.268 389.924 398.614 396.04 396.573 399.499C394.026 403.799 392.417 405.798 390.94 406.495C388.538 407.639 388.663 407.639 384.77 406.587C378.022 404.766 371.024 398.039 371.024 393.357C371.024 390.069 372.226 388.234 377.707 383.197C381.947 379.305 385.459 373.847 385.459 371.151C385.459 367.863 394.295 348.793 400.432 338.831C411.414 321.077 431.626 298.95 442.772 292.539C445.896 290.743 446.218 290.743 454.495 292.703C458.224 293.584 462.806 294.505 464.677 294.755L468.07 295.202L469.6 299.233C471.569 304.512 471.543 310.331 469.528 315.593C466.37 323.852 452.303 342.218 442.05 351.476C439.174 354.107 436.641 356.079 436.49 356.198C436.109 356.461 436.162 362.445 436.162 362.445L438.518 359.979C439.831 358.624 455.401 343.993 458.526 339.594C459.694 337.95 462.464 334.629 464.362 331.999C464.362 331.999 470.217 323.727 472.081 320.058C473.06 317.918 473.825 315.687 474.365 313.397C474.884 311.181 476.02 307.386 475.166 304.105C474.971 303.578 474.908 303.012 474.982 302.455C475.337 302.1 497.957 307.452 501.646 307.196C506.773 306.834 513.725 302.146 513.725 302.146C516.718 301.133 517.401 297.944 517.401 294.847V255.005C517.401 255.005 516.744 245.674 516.744 243.471C516.698 230.78 512.438 212.328 508.447 207.581C505.664 204.26 488.866 195.613 469.488 187.525C465.34 185.789 461.762 184.198 461.532 183.981C461.303 183.764 460.961 181.285 460.764 178.483L460.403 173.387H462.077C465.582 173.387 469.495 167.075 469.495 161.433C469.495 159.46 469.816 159.006 471.792 158.066C476.171 155.968 477.799 150.977 475.731 146.006C474.831 143.849 474.851 143.514 475.961 141.923C478.586 138.148 479.243 134.091 477.779 131.231C477.011 129.758 477.031 128.929 477.923 125.503C481.113 113.266 471.766 103.047 454.292 99.674C450.46 99.1154 446.592 98.8407 442.719 98.8521C438.328 98.8521 435.334 98.5759 435.334 98.1945C435.142 97.4938 434.768 96.8565 434.251 96.3467C433.834 95.9443 433.338 95.633 432.795 95.4326C432.251 95.2323 431.672 95.1472 431.094 95.1828L431.081 95.1697ZM430.424 98.6088C431.416 98.5693 431.54 99.2663 431.553 100.943C431.553 103.074 432.952 102.916 434.251 102.85H440.356C457.036 102.85 468.858 107.229 472.783 114.949C474.385 118.092 475.087 124.274 474.208 127.443C473.756 129.103 473.775 130.856 474.26 132.506C474.917 134.841 474.779 135.59 473.42 138.497C471.937 141.66 471.746 141.785 469.265 141.785C464.729 141.785 461.119 144.895 457.449 151.977C454.436 157.783 454.233 157.777 454.627 151.865C454.979 145.394 457.062 139.136 460.659 133.749C462.392 131.066 463.561 128.489 463.561 127.351C463.561 124.754 459.773 121.676 455.349 120.69C451.791 119.888 448.955 120.414 436.844 124.142C430.155 126.253 427.766 125.595 425.363 121.071C422.862 116.396 421.425 110.55 421.97 107.065C422.514 103.58 425.304 100.128 428.481 99.0756C429.116 98.8366 429.777 98.6775 430.451 98.6022L430.424 98.6088ZM416.922 111.622C416.996 111.61 417.072 111.614 417.145 111.634C417.218 111.655 417.285 111.691 417.342 111.74C417.825 112.764 418.207 113.832 418.484 114.93C419.278 117.645 419.213 118.066 417.467 121.841C416.38 124.249 415.618 126.792 415.202 129.403C414.506 135.656 413.718 135.761 411.086 129.948C410.146 127.888 409.687 125.639 409.744 123.374C409.801 121.109 410.372 118.887 411.414 116.876C412.727 114.456 415.688 111.74 416.928 111.622H416.922ZM421.549 122.748C421.825 122.748 422.862 123.813 423.854 125.122C427.49 129.902 431.658 130.271 442.037 126.759C444.731 125.823 447.478 125.041 450.262 124.418C453.124 123.938 457.246 124.793 459.301 126.292C460.554 127.213 460.535 127.298 458.519 130.106C455.625 134.144 452.612 140.312 451.791 143.797C451.313 146.65 451.08 149.538 451.095 152.431C451.095 157.034 451.312 158.395 452.336 159.664C453.478 161.071 453.787 161.143 455.69 160.427L457.778 159.638L457.285 162.071C457.01 163.386 456.754 168.37 456.714 173.098L456.649 181.686L452.054 186.249C446.907 191.339 440.848 199.157 438.63 203.589C437.035 206.765 436.798 210.645 438.013 213.578C438.669 215.117 438.544 216.425 437.428 220.883C434.396 232.996 431.212 253.479 431.521 258.878L431.744 262.823H428.967C426.466 262.823 426.151 262.646 425.803 261.015C424.411 254.479 419.587 246.772 415.596 244.707C413.219 243.477 413.154 241.814 415.3 237.092C416.252 234.948 417.042 232.734 417.663 230.471C418.123 228.61 418.976 226.999 419.876 226.427C420.775 225.855 422.921 223.027 424.891 220.029L428.462 214.577L428.81 203.03C429.085 193.779 429.407 190.793 430.437 188.031C431.468 185.27 432.033 184.579 433.142 184.579C436.424 184.579 443.139 181.877 445.883 179.437C449.927 175.84 448.404 173.913 443.717 176.682C439.929 178.917 434.002 180.627 430.05 180.627C425.829 180.627 423.486 179.2 420.952 175.097C419.173 172.21 418.326 161.9 418.326 143.264C418.326 130.428 418.431 128.982 419.705 126.003C420.48 124.214 421.326 122.755 421.602 122.755L421.549 122.748ZM468.897 145.322C469.473 145.314 470.039 145.474 470.525 145.783C473.151 147.183 473.151 152.043 470.525 153.798C468.878 154.903 463.567 154.167 461.67 152.575C461.014 152.036 465.084 146.999 466.922 146.039C467.525 145.676 468.194 145.434 468.891 145.329L468.897 145.322ZM424.963 146.407C424.428 146.338 423.884 146.425 423.397 146.659C422.91 146.892 422.501 147.261 422.219 147.722C421.405 149.248 421.963 152.181 423.381 153.818C423.755 154.252 424.232 154.584 424.767 154.787C425.303 154.989 425.88 155.053 426.447 154.975C427.014 154.896 427.552 154.677 428.013 154.338C428.474 153.998 428.842 153.548 429.085 153.029C430.398 150.438 430.398 149.919 428.475 148.032C427.538 147.085 426.29 146.513 424.963 146.42V146.407ZM462.018 157.816C462.713 157.876 463.395 158.033 464.046 158.283C465.944 158.941 466.016 159.138 465.714 161.735C465.418 163.595 464.834 165.397 463.981 167.075C462.668 169.521 461.559 170.481 460.876 169.804C460.508 169.435 461.316 158.303 461.742 157.875C461.823 157.826 461.918 157.806 462.012 157.816H462.018ZM285.827 168.883C286.063 168.883 286.28 168.883 286.484 168.883C289.234 169.08 289.346 169.179 291.407 173.361C294.374 179.365 297.794 191.267 299.507 201.531C301.168 211.52 300.912 212.933 297.19 214.492C295.435 215.105 293.593 215.427 291.735 215.445H288.558V210.02C288.558 204.063 287.448 199.815 284.219 193.654L282.25 189.938L284.055 187.209C286.024 184.25 286.418 180.857 284.928 179.851C283.438 178.845 277.746 179.595 273.316 181.403C269.377 183.014 269.174 183.034 268.55 181.87C268.019 180.523 267.664 179.113 267.493 177.675C267.027 174.249 267.697 173.072 270.939 171.757C274.182 170.441 282.243 168.896 285.794 168.896L285.827 168.883ZM280.425 183.31C280.569 183.299 280.712 183.344 280.825 183.435C281.482 184.093 280.247 187.196 279.342 187.196C277.49 187.196 277.806 189.031 280.884 196.106C283.884 202.998 284.022 203.57 284.022 209.442C284.022 215.537 284.022 215.583 281.889 217.497C279.223 219.884 278.147 219.891 274.478 217.556C265.905 212.111 257.896 197.52 260.929 192.884C262.485 190.504 277.569 183.238 280.425 183.31ZM457.082 186.861L456.727 192.779C456.3 200.309 454.402 207.681 451.141 214.479C449.73 217.398 447.971 220.338 447.203 221.008C445.89 222.212 445.837 222.205 445.233 220.666C444.899 219.805 443.54 216.754 442.227 213.887L439.831 208.672L444.091 202.379C446.717 198.562 449.595 194.924 452.703 191.49L457.082 186.861ZM461.532 188.025C462.11 188.34 470.913 192.483 483.26 198.237C504.042 207.916 504.318 208.1 506.379 212.177C508.795 216.964 510.646 224.48 511.88 234.535C513.265 245.713 513.981 291.085 512.832 294.597C511.572 298.43 509.163 300.811 505.408 301.929C501.404 303.119 498.693 303.112 493.435 301.929C491.268 301.435 486.982 300.554 483.916 299.956C476.696 298.595 473.243 297.523 472.908 296.497C472.718 295.899 473.781 295.675 476.847 295.675C480.464 295.675 481.442 295.406 483.687 293.781C487.323 291.151 488.8 287.83 488.728 282.451C488.656 277.29 486.575 272.147 483.247 268.912C480.969 266.703 477.503 264.776 475.79 264.776C475.502 264.768 475.221 264.695 474.965 264.563C474.709 264.431 474.487 264.243 474.313 264.013C473.538 262.757 480.923 263.829 484.284 265.46C486.491 266.604 488.602 267.924 490.599 269.405C493.933 271.911 495.056 272.134 495.056 270.286C495.056 269.037 490.054 263.606 488.426 263.093C487.77 262.869 487.179 262.435 487.179 262.08C487.179 261.133 490.888 261.35 493.513 262.455C496.645 263.77 497.15 263.698 496.9 262.021C496.343 258.292 488.111 256.103 484.553 258.733C482.951 259.923 482.098 260.048 478.527 259.726C474.024 259.312 469.77 260.522 469.042 262.429C468.707 263.303 466.528 263.435 453.137 263.435C444.432 263.435 437.179 263.145 436.628 262.777C434.96 261.712 435.538 252.065 438.229 236.139C439.542 228.189 440.783 221.561 440.934 221.409C441.085 221.258 441.82 222.514 442.562 224.198C443.632 226.617 444.242 227.262 445.489 227.262C451.286 227.262 459.773 208.495 460.738 193.548C460.948 190.366 461.289 187.86 461.506 187.972L461.532 188.025ZM424.228 193.765C424.569 193.765 424.838 197.77 424.838 203.004C424.838 213.078 424.713 213.525 420.453 219.489C419.18 221.258 417.906 222.698 417.604 222.698C416.495 222.698 415.379 217.615 415.346 212.493C415.346 207.85 415.569 206.713 417.427 202.958C419.587 198.585 423.151 193.765 424.228 193.765ZM417.355 194.035C417.414 194.035 417.453 194.035 417.46 194.035C417.663 194.232 417.355 194.923 416.771 195.561C415.523 197.378 414.444 199.306 413.548 201.321C411.5 205.648 411.381 206.318 411.381 213.157C411.381 219.996 411.506 220.62 413.272 223.81L415.169 227.242L413.272 232.029L411.375 236.829L405.795 237.224C403.247 237.378 400.707 237.661 398.187 238.072L396.159 238.526L395.398 233.075C394.085 223.783 393.605 224.974 401.739 217.951C406.038 214.216 403.051 212.736 397.885 216.031C396.284 217.05 393.717 218.845 392.746 220.43C391.021 223.024 390.375 226.19 390.947 229.254C391.531 232.674 391.544 236.455 391.754 237.566L392.129 239.585L385.978 241.183C377.976 243.306 377.517 244.05 379.505 251.704C380.26 254.636 381.915 262.1 383.181 268.294C385.492 279.617 388.682 291.901 390.501 296.491C391.157 298.108 392.024 299.121 393.048 299.358C393.907 299.575 394.616 299.956 394.616 300.206C394.616 301.021 375.869 320.88 371.386 324.819C368.976 326.929 365.478 329.908 363.266 330.914C360.432 332.34 357.299 333.064 354.128 333.025L344.741 332.762C331.101 332.381 330.405 333.42 325.849 333.663C325.849 333.663 321.13 334.577 321.13 331.532C321.172 328.548 321.926 325.617 323.329 322.984C325.633 319.039 331.646 313.607 339.536 308.307C347.426 303.007 352.113 299.134 354.817 295.616L356.708 293.163L358.9 294.656C361.624 296.504 365.281 297.247 367.04 296.306C368.911 295.3 368.72 293.676 366.738 293.676C364.756 293.676 359.169 291.046 359.169 290.138C359.169 289.783 360.607 286.66 362.373 283.201C367.742 272.647 370.617 263.98 375.816 242.715C381.58 219.134 381.573 219.18 379.998 218.858C378.12 218.464 376.512 223.132 371.228 244.286C365.767 266.17 366.502 264.73 357.857 270.642C347.078 278.006 342.759 278.217 330.287 271.957C325.416 269.524 309.458 259.121 305.697 255.932C303.354 253.959 303.728 253.302 306.59 254.301C313.692 256.78 322.482 251.316 325.016 242.846C326.703 237.204 325.436 229.3 322.541 227.406C321.044 226.42 321.025 226.335 322.213 225.894C324.72 224.967 327.018 226.203 335.761 233.193C344.951 240.564 352.021 245.029 354.469 245.029C356.728 245.029 356.13 243.247 353.157 241.084L350.432 239.111H352.71C355.684 239.111 361.664 240.906 363.83 242.458C367.047 244.747 367.46 241.452 364.283 238.776C361.657 236.593 359.832 235.863 355.342 235.284L351.837 234.837L365.268 219.713C372.659 211.395 379.926 203.806 381.429 202.846C383.238 201.782 385.224 201.052 387.291 200.69C388.997 200.446 396.402 198.769 403.747 196.961C410.64 195.278 416.502 194.015 417.368 194.035H417.355ZM290.987 220.121C293.862 220.121 295.201 220.607 300.144 222.994C303.557 224.645 309.596 227.124 313.574 228.498L320.795 231.003L321.701 233.838C323.473 239.374 320.106 247.469 315.025 249.882C313.465 250.548 311.796 250.921 310.102 250.98C305.251 250.98 301.608 248.238 289.615 235.573L278.455 223.783L280.792 222.974C282.019 222.562 283.179 221.976 284.239 221.232C284.895 220.68 287.101 220.239 289.641 220.154C290.127 220.154 290.573 220.121 290.987 220.121ZM408.487 241.288C408.806 241.265 409.126 241.289 409.438 241.36C410.187 241.649 410.397 243.149 410.397 248.317V254.893L405.533 254.479C400.938 254.091 400.583 254.15 398.968 255.794C397.656 257.109 397.268 258.168 397.268 260.239C397.268 262.553 397.669 263.375 399.894 265.605C402.71 268.426 402.9 268.735 401.817 268.735C401.43 268.735 399.75 269.682 398.076 270.832C396.206 272.216 393.982 273.04 391.662 273.206L388.288 273.482L386.831 266.019C386.024 261.909 384.652 255.84 383.772 252.539C381.855 245.365 381.875 245.726 383.352 245.726C385.403 245.444 387.432 245.02 389.424 244.457C394.977 243.017 405.178 241.367 408.46 241.294L408.487 241.288ZM414.946 249.001C415.832 249.001 418.051 252.289 420.099 256.695C421.753 260.252 421.878 261.113 421.878 269.386C421.878 277.342 421.72 278.624 420.315 281.741C419.449 283.655 418.215 285.503 417.565 285.851C416.075 286.647 416.324 286.693 413.948 285.24C410.869 283.359 409.064 278.894 409.012 272.983C409.012 269.589 407.797 266.598 405.073 264.677C402.94 262.817 401.2 260.732 401.2 260.074C401.2 258.97 401.857 258.858 408.71 258.858C416.725 258.858 418.3 258.26 415.74 256.182C414.664 255.307 414.329 254.314 414.329 252.013C414.335 250.362 414.611 249.001 414.946 249.001ZM426.578 267.084L429.157 267.156C430.569 267.202 440.888 267.452 452.08 267.715C463.272 267.978 473.519 268.478 474.858 268.814C480.503 270.227 484.166 275.659 484.212 282.688C484.245 286.824 484.1 287.252 482.105 289.264C480.109 291.276 479.637 291.414 475.54 291.447C467.007 291.526 454.62 288.882 436.47 283.109L426.112 279.821L426.341 273.456L426.578 267.084ZM404.095 272.016C404.305 272.016 404.496 273.574 404.496 275.468C404.496 279.315 406.465 284.161 409.353 287.62C411.887 290.625 411.487 292.88 408.093 294.643C405.355 296.07 396.323 296.925 394.925 295.886C394.347 295.458 389.352 279.223 389.378 277.855C389.378 277.632 390.862 277.309 392.66 277.132C394.892 276.921 397.17 276.053 399.815 274.423C401.179 273.513 402.61 272.709 404.095 272.016ZM424.398 283.195C424.779 283.195 439.575 288.534 439.792 288.751C439.903 288.863 438.131 290.29 435.853 291.92C431.258 295.208 420.361 305.65 414.847 312.009C412.071 315.225 410.679 316.296 408.684 316.757C405.047 317.605 399.96 317.48 397.15 316.474C394.045 315.363 390.52 313.285 390.225 312.397C390.094 312.009 392.234 309.109 394.977 305.992C399.494 300.83 400.189 300.291 402.303 300.291C408.053 300.291 414.309 296.398 414.309 292.815C414.309 291.309 414.585 291.085 416.397 291.085C418.005 291.085 419.114 290.428 421.32 288.113C422.882 286.482 424.162 284.7 424.162 284.168C424.162 283.635 424.254 283.195 424.379 283.195H424.398ZM387.429 315.415C387.776 315.415 388.052 315.685 388.446 316.073C389.865 317.256 391.39 318.306 393.002 319.21C395.91 320.893 396.894 321.103 401.693 321.07C403.499 321 405.309 321.054 407.108 321.235C407.108 321.34 405.139 324.207 402.684 327.594C398.811 332.979 397.708 334.051 393.986 336.024C387.934 339.226 330.562 377.45 323.184 383.158C318.327 386.932 316.764 388.57 315.714 390.983C315.002 392.617 314.163 394.194 313.207 395.698C312.55 396.618 308.31 403.838 303.754 411.749C290.12 435.421 284.462 443.417 274.248 453.524C269.292 458.423 268.603 459.383 268.603 461.415C268.603 465.111 267.29 468.74 265.32 470.746C264.296 471.772 262.773 472.594 261.933 472.594C260.102 472.594 253.964 470.108 250.662 468.07C245.825 465.071 239.733 456.621 239.733 452.906C239.733 451.847 241.105 450.098 244.078 447.356C254.489 437.756 269.259 416.095 279.781 395.014C284.462 385.617 288.446 379.015 290.895 376.602C292.208 375.326 297.42 369.112 302.533 362.793C307.647 356.474 314.513 348.327 317.795 344.618L323.755 337.93L328.18 337.45C330.615 337.194 338.682 337.181 346.067 337.45L354.233 337.727C357.561 337.687 360.856 337.562 363.535 335.899C370.392 331.479 376.668 326.215 382.217 320.229C385.571 316.612 386.674 315.442 387.468 315.468L387.429 315.415ZM369.502 400.182C369.699 400.182 369.843 400.334 369.994 400.59C371.477 403.22 376 407.652 378.416 408.889C380.385 409.882 380.851 410.454 380.497 411.302C379.473 413.728 379.558 419.272 380.707 424.736L381.915 430.483L379.788 432.548C378.342 434.099 377.159 435.876 376.282 437.808C375.534 439.571 374.766 441.011 374.595 441.011C374.425 441.011 373.283 439.433 372.035 437.506C369.646 433.758 365.622 429.832 364.158 429.832C363.279 429.832 363.121 428.819 362.045 416.49L361.657 412.032L365.471 405.706C367.959 401.616 368.911 400.202 369.502 400.182ZM357.095 416.023C358.664 416.023 359.419 421.829 359.859 437.394C360.364 454.997 361.316 461.961 363.948 467.281C365.261 469.911 365.714 470.299 367.847 470.476C369.692 470.628 370.906 470.213 372.961 468.721C374.555 467.591 376.351 466.778 378.252 466.327C380.003 465.95 381.672 465.261 383.181 464.295C386.089 462.323 386.109 462.322 386.109 464.519C386.109 469.668 383.483 473.514 378.639 475.546C376.41 476.303 374.094 476.773 371.747 476.947C368.071 477.23 366.948 477.045 364.447 475.75C361.946 474.455 361.27 473.652 360.075 470.601C357.351 463.671 356.577 457.549 355.927 437.618C355.323 419.429 355.507 416.023 357.095 416.023ZM364.139 434.1C364.296 434.047 364.513 434.205 364.795 434.442C366.922 436.191 372.291 445.035 373.329 448.448C375.298 455.023 374.175 462.533 370.821 465.505C369.698 466.498 368.537 467.313 368.248 467.313C366.561 467.313 364.414 455.254 363.981 443.319C363.699 436.217 363.659 434.244 364.132 434.1H364.139ZM382.847 435.093C383.766 435.093 385.131 443.437 385.098 448.902C385.098 455.148 384.16 458.568 381.993 460.593C381.02 461.439 379.876 462.064 378.639 462.428C376.794 462.888 376.748 462.842 377.267 461.001C377.556 459.949 377.851 455.99 377.923 452.189C377.996 448.389 378.271 444.397 378.58 443.312C379.236 440.886 382.256 435.093 382.886 435.093H382.847ZM240.311 462.809L241.551 464.782C243.068 467.175 248.312 471.594 251.693 473.33C254.109 474.56 254.155 474.645 253.275 476.388C252.484 478.149 251.793 479.953 251.207 481.793C248.024 491.657 243.783 497.18 236.766 500.507C231.908 502.829 229.933 503.019 226.998 501.454C224.064 499.889 216.981 498.265 213.279 498.252C210.653 498.252 210.194 497.594 211.848 496.227C213.207 495.102 215.412 490.729 215.412 489.178C215.412 488.474 220.664 482.641 227.852 475.369L240.311 462.809ZM210.47 491.203C210.503 491.196 210.537 491.196 210.57 491.204C210.603 491.212 210.634 491.227 210.66 491.249C211.1 491.683 208.769 494.859 206.472 496.983C205.26 498.036 203.874 498.868 202.376 499.442C198.575 500.718 198.096 500.238 200.334 497.384C201.601 495.773 209.065 491.282 210.463 491.203H210.47ZM211.782 502.171C215.878 502.171 222.876 503.486 223.788 504.38C224.156 504.749 220.585 505.775 214.145 507.162C208.638 508.352 198.306 508.997 197.19 508.227C196.534 507.754 196.685 507.201 197.991 505.65C199.94 503.309 204.503 502.158 211.769 502.171H211.782ZM555.815 516.782C555.106 517.256 501.889 517.44 481.035 517.144C475.941 517.078 395.043 516.98 395.043 516.98L321.937 517.137L242.982 517.302H238.545L198.936 517.137L159.327 516.966L61.3298 517.295L3.75475 517.624C3.75475 517.624 0 517.9 0 519.268C0 520.636 3.75475 520.912 3.75475 520.912L43.4685 521.241C104.076 521.74 622.941 521.832 643.113 521.339L660.836 520.912C660.836 520.912 664.007 520.458 664.007 519.268C664.007 518.078 660.836 517.624 660.836 517.624L610.948 517.295C576.315 517.072 555.808 516.789 555.808 516.789L555.815 516.782Z" fill="black"/>
</g>
<defs>
<clipPath id="clip0_945_52969">
<rect width="664" height="542" fill="white"/>
</clipPath>
</defs>
</svg>
