<svg width="322" height="64" viewBox="0 0 322 64" fill="none" xmlns="http://www.w3.org/2000/svg">
<path d="M321.279 61.2564L315.511 61.0094L318.609 56.1375L321.279 61.2564ZM1.25015 62.0385C2.70633 61.0977 4.155 60.1682 5.5963 59.2499L6.13363 60.0933C4.69414 61.0104 3.24726 61.9388 1.79282 62.8785L1.25015 62.0385ZM14.1939 53.8521C17.1338 52.0344 20.0431 50.2652 22.9234 48.5442L23.4363 49.4026C20.5606 51.1209 17.6555 52.8875 14.7198 54.7026L14.1939 53.8521ZM31.7418 43.3741C34.7346 41.6539 37.6963 39.9878 40.6285 38.3754L41.1103 39.2517C38.1839 40.8609 35.2277 42.5239 32.2401 44.2411L31.7418 43.3741ZM49.5993 33.5626C52.6534 31.9661 55.6761 30.4299 58.6695 28.9538L59.1118 29.8507C56.1257 31.3232 53.11 32.8558 50.0626 34.4488L49.5993 33.5626ZM67.8838 24.5577C71.0282 23.1091 74.1413 21.7291 77.2258 20.4171L77.6172 21.3374C74.5422 22.6453 71.438 24.0214 68.3022 25.466L67.8838 24.5577ZM86.686 16.5726C89.9097 15.3249 93.1036 14.1541 96.2709 13.0595L96.5975 14.0047C93.4422 15.0951 90.2597 16.2618 87.047 17.5051L86.686 16.5726ZM105.982 9.91747C109.286 8.92282 112.564 8.0134 115.818 7.18865L116.064 8.158C112.824 8.97903 109.561 9.88449 106.271 10.875L105.982 9.91747ZM125.769 4.91611C129.14 4.23204 132.49 3.64066 135.822 3.14132L135.971 4.13028C132.656 4.62703 129.323 5.21541 125.968 5.89614L125.769 4.91611ZM145.956 1.90107C149.367 1.57824 152.763 1.35289 156.149 1.22427L156.187 2.22355C152.819 2.35144 149.442 2.57554 146.051 2.89662L145.956 1.90107ZM166.367 1.12948C169.771 1.1958 173.17 1.35998 176.569 1.62122L176.492 2.61827C173.113 2.35849 169.732 2.19523 166.347 2.12929L166.367 1.12948ZM186.725 2.68958C190.08 3.13706 193.439 3.67815 196.806 4.31205L196.621 5.29479C193.271 4.66412 189.93 4.12588 186.593 3.6808L186.725 2.68958ZM206.789 6.45576C210.065 7.24486 213.352 8.12 216.656 9.08045L216.376 10.0407C213.087 9.08443 209.815 8.2133 206.555 7.42795L206.789 6.45576ZM226.394 12.1417C229.577 13.2157 232.777 14.3666 235.999 15.5938L235.643 16.5283C232.433 15.3055 229.245 14.159 226.075 13.0892L226.394 12.1417ZM245.469 19.3924C248.559 20.6928 251.671 22.0608 254.808 23.4959L254.392 24.4053C251.264 22.9742 248.161 21.6103 245.081 20.3141L245.469 19.3924ZM264.023 27.8668C267.03 29.3427 270.063 30.8779 273.123 32.472L272.661 33.3589C269.607 31.7683 266.582 30.2367 263.582 28.7645L264.023 27.8668ZM282.12 37.2832C285.062 38.8957 288.03 40.5602 291.027 42.2764L290.53 43.1442C287.538 41.4309 284.575 39.7694 281.639 38.1601L282.12 37.2832ZM299.859 47.4317C302.732 49.1403 305.634 50.8943 308.564 52.6935L308.04 53.5457C305.114 51.7489 302.217 49.9973 299.348 48.2913L299.859 47.4317ZM317.199 58.0716C317.382 58.1872 317.565 58.3031 317.749 58.4191L317.214 59.2643C317.031 59.1484 316.848 59.0327 316.665 58.9172L317.199 58.0716ZM321.279 61.2564L309.742 60.7665L315.935 51.0205L321.279 61.2564ZM0.978821 61.6185C2.43587 60.6772 3.88542 59.7471 5.32763 58.8282L6.40229 60.515C4.96372 61.4315 3.51772 62.3593 2.06415 63.2984L0.978821 61.6185ZM13.9309 53.4268C16.8729 51.6078 19.7844 49.8373 22.6669 48.115L23.6928 49.8318C20.8193 51.5488 17.9164 53.3141 14.9827 55.1279L13.9309 53.4268ZM31.4927 42.9406C34.4881 41.2189 37.4525 39.5513 40.3876 37.9373L41.3513 39.6898C38.4277 41.2975 35.4742 42.959 32.4893 44.6746L31.4927 42.9406ZM49.3677 33.1195C52.4251 31.5212 55.4513 29.9833 58.4484 28.5054L59.3329 30.2991C56.3505 31.7698 53.3383 33.3006 50.2942 34.8919L49.3677 33.1195ZM67.6746 24.1036C70.8233 22.653 73.9409 21.271 77.0301 19.957L77.8129 21.7975C74.7426 23.1034 71.6429 24.4775 68.5114 25.9201L67.6746 24.1036ZM86.5056 16.1063C89.7347 14.8565 92.9344 13.6836 96.1075 12.5869L96.7608 14.4772C93.6115 15.5656 90.4347 16.7302 87.2274 17.9714L86.5056 16.1063ZM105.838 9.4387C109.149 8.44199 112.434 7.53059 115.695 6.70397L116.187 8.64268C112.954 9.46184 109.698 10.3653 106.415 11.3538L105.838 9.4387ZM125.67 4.42611C129.049 3.74036 132.407 3.14748 135.748 2.64684L136.045 4.62476C132.738 5.12021 129.414 5.70709 126.068 6.38615L125.67 4.42611ZM145.909 1.4033C149.329 1.07958 152.734 0.853607 156.13 0.724629L156.206 2.72319C152.848 2.85072 149.48 3.07419 146.098 3.3944L145.909 1.4033ZM166.376 0.62957C169.79 0.696077 173.199 0.86072 176.607 1.12269L176.454 3.1168C173.084 2.85774 169.713 2.69495 166.337 2.62919L166.376 0.62957ZM186.791 2.19397C190.155 2.64265 193.523 3.18517 196.898 3.82068L196.528 5.78616C193.187 5.1571 189.855 4.62029 186.527 4.17641L186.791 2.19397ZM206.906 5.96966C210.189 6.76064 213.485 7.63778 216.795 8.60033L216.237 10.5208C212.955 9.56664 209.69 8.69752 206.437 7.91405L206.906 5.96966ZM226.554 11.6679C229.743 12.7441 232.95 13.8972 236.177 15.1266L235.465 16.9956C232.261 15.775 229.078 14.6306 225.915 13.5629L226.554 11.6679ZM245.663 18.9316C248.758 20.234 251.875 21.604 255.016 23.0412L254.184 24.8599C251.06 23.4309 247.962 22.0691 244.888 20.775L245.663 18.9316ZM264.243 27.4179C267.254 28.8957 270.29 30.4327 273.354 32.0286L272.43 33.8023C269.38 32.2135 266.358 30.6838 263.362 29.2133L264.243 27.4179ZM282.36 36.8448C285.305 38.4588 288.276 40.1248 291.276 41.8425L290.282 43.5781C287.292 41.8663 284.332 40.2063 281.399 38.5986L282.36 36.8448ZM300.114 47.002C302.99 48.7118 305.893 50.467 308.825 52.2674L307.779 53.9717C304.854 52.1761 301.959 50.4258 299.092 48.7211L300.114 47.002Z" fill="#C4C2C2"/>
</svg>
