<svg width="18" height="18" viewBox="0 0 18 18" fill="none" xmlns="http://www.w3.org/2000/svg">
<path fill-rule="evenodd" clip-rule="evenodd" d="M2 0H16C17.1046 0 18 0.89543 18 2V16C18 17.1046 17.1046 18 16 18H2C0.89543 18 0 17.1046 0 16V2C0 0.89543 0.89543 0 2 0ZM5 15C5.27614 15 5.5 14.7761 5.5 14.5V7.5C5.5 7.2239 5.27614 7 5 7H3.5C3.22386 7 3 7.2239 3 7.5V14.5C3 14.7761 3.22386 15 3.5 15H5ZM4.25 6C3.42157 6 2.75 5.32843 2.75 4.5C2.75 3.67157 3.42157 3 4.25 3C5.07843 3 5.75 3.67157 5.75 4.5C5.75 5.32843 5.07843 6 4.25 6ZM14.5 15C14.7761 15 15 14.7761 15 14.5V9.9C15.0325 8.3108 13.8576 6.95452 12.28 6.76C11.177 6.65925 10.1083 7.1744 9.5 8.1V7.5C9.5 7.2239 9.2761 7 9 7H7.5C7.2239 7 7 7.2239 7 7.5V14.5C7 14.7761 7.2239 15 7.5 15H9C9.2761 15 9.5 14.7761 9.5 14.5V10.75C9.5 9.9216 10.1716 9.25 11 9.25C11.8284 9.25 12.5 9.9216 12.5 10.75V14.5C12.5 14.7761 12.7239 15 13 15H14.5Z" fill="black"/>
</svg>
