<svg width="50" height="50" viewBox="0 0 50 50" fill="none" xmlns="http://www.w3.org/2000/svg">
<path d="M25 49C38.2548 49 49 38.2548 49 25C49 11.7452 38.2548 1 25 1C11.7452 1 1 11.7452 1 25C1 38.2548 11.7452 49 25 49Z" fill="#FFDE59" stroke="#FFDE59" stroke-opacity="0.12"/>
<g clip-path="url(#clip0_1065_365)">
<path d="M19.6186 14.3479V20.0767H13.8559V14.3479H19.6186ZM20.2966 13H13.178C12.9982 13 12.8257 13.071 12.6986 13.1974C12.5714 13.3238 12.5 13.4952 12.5 13.674V20.7506C12.5 20.9294 12.5714 21.1008 12.6986 21.2272C12.8257 21.3536 12.9982 21.4246 13.178 21.4246H20.2966C20.4764 21.4246 20.6489 21.3536 20.776 21.2272C20.9031 21.1008 20.9746 20.9294 20.9746 20.7506V13.674C20.9746 13.4952 20.9031 13.3238 20.776 13.1974C20.6489 13.071 20.4764 13 20.2966 13V13Z" fill="black"/>
<path d="M35.144 14.3479V20.0767H29.3813V14.3479H35.144ZM35.822 13H28.7034C28.5235 13 28.3511 13.071 28.224 13.1974C28.0968 13.3238 28.0254 13.4952 28.0254 13.674V20.7506C28.0254 20.9294 28.0968 21.1008 28.224 21.2272C28.3511 21.3536 28.5235 21.4246 28.7034 21.4246H35.822C36.0018 21.4246 36.1743 21.3536 36.3014 21.2272C36.4285 21.1008 36.5 20.9294 36.5 20.7506V13.674C36.5 13.4952 36.4285 13.3238 36.3014 13.1974C36.1743 13.071 36.0018 13 35.822 13V13Z" fill="black"/>
<path d="M35.1152 29.9234V35.6521H29.3525V29.9234H35.1152ZM35.7932 28.5754H28.6745C28.4947 28.5754 28.3223 28.6464 28.1952 28.7728C28.068 28.8992 27.9966 29.0707 27.9966 29.2494V36.3261C27.9966 36.5048 28.068 36.6762 28.1952 36.8026C28.3223 36.929 28.4947 37 28.6745 37H35.7932C35.973 37 36.1454 36.929 36.2726 36.8026C36.3997 36.6762 36.4712 36.5048 36.4712 36.3261V29.2494C36.4712 29.0707 36.3997 28.8992 36.2726 28.7728C36.1454 28.6464 35.973 28.5754 35.7932 28.5754Z" fill="black"/>
<path d="M19.6186 29.9234V35.6521H13.8559V29.9234H19.6186ZM20.2966 28.5754H13.178C12.9982 28.5754 12.8257 28.6464 12.6986 28.7728C12.5714 28.8992 12.5 29.0707 12.5 29.2494V36.3261C12.5 36.5048 12.5714 36.6762 12.6986 36.8026C12.8257 36.929 12.9982 37 13.178 37H20.2966C20.4764 37 20.6489 36.929 20.776 36.8026C20.9031 36.6762 20.9746 36.5048 20.9746 36.3261V29.2494C20.9746 29.0707 20.9031 28.8992 20.776 28.7728C20.6489 28.6464 20.4764 28.5754 20.2966 28.5754Z" fill="black"/>
<path d="M28.2317 20.3851L19.9346 28.6333L20.8934 29.5864L29.1905 21.3382L28.2317 20.3851Z" fill="black"/>
<path d="M28.71 16.5383H20.6914V17.8863H28.71V16.5383Z" fill="black"/>
<path d="M28.7116 32.1138H20.5303V33.4617H28.7116V32.1138Z" fill="black"/>
</g>
<defs>
<clipPath id="clip0_1065_365">
<rect width="24" height="24" fill="white" transform="translate(12.5 13)"/>
</clipPath>
</defs>
</svg>
