<svg width="98" height="98" viewBox="0 0 98 98" fill="none" xmlns="http://www.w3.org/2000/svg">
<rect width="98" height="98" rx="49" fill="black"/>
<g clip-path="url(#clip0_285_8342)">
<path d="M55 34H43L38.5563 27.3344C37.8906 26.3312 38.6031 25 39.8031 25H58.1969C59.3969 25 60.1094 26.3312 59.4437 27.3344L55 34ZM43 37H55C55.3563 37.2344 55.7594 37.4969 56.2188 37.7875C61.5344 41.1906 73 48.5219 73 64C73 68.9688 68.9688 73 64 73H34C29.0312 73 25 68.9688 25 64C25 48.5219 36.4656 41.1906 41.7812 37.7875C42.2313 37.4969 42.6437 37.2344 43 37ZM50.8844 46C50.8844 44.9594 50.0406 44.1156 49 44.1156C47.9594 44.1156 47.1156 44.9594 47.1156 46V46.5625C46.5906 46.675 46.0938 46.8344 45.625 47.0406C44.2188 47.6781 43.0094 48.8594 42.7094 50.575C42.5406 51.5312 42.6344 52.45 43.0281 53.2937C43.4219 54.1187 44.0312 54.7 44.65 55.1219C45.7375 55.8625 47.1719 56.2937 48.2687 56.6219L48.475 56.6875C49.7781 57.0812 50.6688 57.3813 51.2219 57.7844C51.4563 57.9531 51.5406 58.0844 51.5781 58.1687C51.6063 58.2437 51.6625 58.4125 51.5969 58.7969C51.5406 59.125 51.3625 59.3969 50.8469 59.6219C50.275 59.8656 49.3469 59.9875 48.1469 59.8C47.5844 59.7063 46.5812 59.3687 45.6906 59.0594C45.4844 58.9844 45.2875 58.9188 45.1 58.8625C44.1156 58.5344 43.0563 59.0687 42.7281 60.0531C42.4 61.0375 42.9344 62.0969 43.9188 62.425C44.0312 62.4625 44.1719 62.5094 44.3312 62.5656C45.0719 62.8188 46.2344 63.2125 47.125 63.4187V64C47.125 65.0406 47.9688 65.8844 49.0094 65.8844C50.05 65.8844 50.8938 65.0406 50.8938 64V63.4844C51.4 63.3906 51.8781 63.25 52.3375 63.0531C53.8094 62.425 55 61.2063 55.3 59.425C55.4688 58.45 55.3938 57.5219 55.0188 56.6687C54.6531 55.825 54.0625 55.2062 53.4344 54.7469C52.2906 53.9219 50.7812 53.4625 49.6469 53.1156L49.5719 53.0969C48.2406 52.6938 47.3406 52.4125 46.7687 52.0281C46.525 51.8594 46.45 51.7469 46.4313 51.7C46.4125 51.6719 46.3656 51.55 46.4219 51.2312C46.45 51.0531 46.6 50.7438 47.1906 50.4719C47.7906 50.2 48.7281 50.05 49.8719 50.2281C50.275 50.2938 51.55 50.5375 51.9062 50.6312C52.9094 50.8937 53.9312 50.3031 54.2031 49.3C54.475 48.2969 53.875 47.275 52.8719 47.0031C52.4594 46.8906 51.5219 46.7031 50.9031 46.5906V46H50.8844Z" fill="#FFDE59"/>
</g>
<defs>
<clipPath id="clip0_285_8342">
<rect width="48" height="48" fill="white" transform="translate(25 25)"/>
</clipPath>
</defs>
</svg>
