<svg width="98" height="98" viewBox="0 0 98 98" fill="none" xmlns="http://www.w3.org/2000/svg">
<rect width="98" height="98" rx="49" fill="black"/>
<path d="M44.8607 45.3663C43.5291 45.3663 42.3287 44.6288 41.7308 43.4424C40.8637 41.7192 41.5584 39.6123 43.2822 38.7437C43.7704 38.4991 44.3088 38.371 44.855 38.3696C45.5043 38.3677 46.1412 38.5466 46.6943 38.8862C47.2474 39.2258 47.6948 39.7127 47.9861 40.2921C48.8557 42.0155 48.1585 44.1236 46.4346 44.9899C45.9467 45.2365 45.4076 45.3654 44.8607 45.3663ZM40.7516 52.517C40.6829 52.517 40.6168 52.5147 40.5482 52.5123C38.6235 52.4002 37.143 50.7442 37.253 48.8191C37.3616 46.9012 39.0076 45.4115 40.9478 45.5249C42.8748 45.6322 44.353 47.2905 44.2444 49.2156C44.1381 51.0686 42.6019 52.517 40.7516 52.517ZM44.8871 59.6461C44.2056 59.6466 43.5388 59.4476 42.9693 59.0738C42.5841 58.8229 42.2526 58.4981 41.9938 58.1184C41.735 57.7387 41.5542 57.3116 41.4618 56.8617C41.2702 55.9483 41.4486 55.0132 41.9603 54.2309C42.279 53.745 42.7139 53.3461 43.2257 53.0702C43.7375 52.7942 44.3101 52.6499 44.8917 52.6503C45.5735 52.6503 46.2386 52.85 46.8095 53.224C47.1953 53.4747 47.5274 53.7994 47.7865 54.1793C48.0455 54.5592 48.2263 54.9868 48.3184 55.4371C48.5109 56.3507 48.3323 57.2842 47.8185 58.067C47.5003 58.5532 47.0655 58.9524 46.5536 59.2281C46.0416 59.5039 45.4688 59.6476 44.8871 59.6461ZM53.145 59.6295C52.496 59.6312 51.8594 59.452 51.3069 59.1121C50.7543 58.7722 50.3077 58.2851 50.0173 57.7056C49.5955 56.8725 49.526 55.9245 49.8188 55.0358C50.1107 54.1483 50.7347 53.4294 51.5688 53.008C52.0567 52.7615 52.5958 52.6329 53.1426 52.6326C53.792 52.6304 54.4291 52.8096 54.982 53.1498C55.5348 53.49 55.9814 53.9777 56.2714 54.5579C57.1388 56.2799 56.4439 58.3868 54.72 59.2555C54.2312 59.5007 53.692 59.6288 53.145 59.6295ZM57.2592 52.4817C57.1894 52.4817 57.1233 52.477 57.0572 52.4747C55.1277 52.366 53.6495 50.7075 53.7593 48.7847C53.8681 46.8656 55.5152 45.3762 57.4554 45.4893C57.9147 45.514 58.3644 45.6295 58.7786 45.8291C59.1928 46.0286 59.5632 46.3083 59.8682 46.6519C60.1755 46.9941 60.4116 47.3938 60.5628 47.8278C60.7141 48.2619 60.7776 48.7216 60.7495 49.1803C60.6455 51.0322 59.1109 52.4817 57.2592 52.4817ZM53.1096 45.3502C52.4301 45.3502 51.7661 45.1531 51.193 44.7765C49.5766 43.7177 49.1266 41.5459 50.1853 39.9326C50.5038 39.447 50.9385 39.0482 51.4501 38.7725C51.9617 38.4967 52.534 38.3526 53.1154 38.3532C53.7972 38.3532 54.4614 38.5517 55.032 38.9255C56.6472 39.982 57.0998 42.1549 56.041 43.7685C55.39 44.7564 54.2959 45.3502 53.1096 45.3502ZM41.3548 32.3638C41.7909 33.2255 41.4424 34.2783 40.581 34.7103C40.376 34.8137 40.1526 34.8757 39.9236 34.8929C39.6946 34.91 39.4645 34.882 39.2463 34.8103C39.0282 34.7386 38.8263 34.6247 38.6523 34.4751C38.4782 34.3255 38.3354 34.1431 38.232 33.9383C38.0228 33.5244 37.9868 33.0444 38.1319 32.6039C38.2771 32.1635 38.5915 31.7986 39.006 31.5896C39.8673 31.1576 40.9212 31.5021 41.3548 32.3638ZM30.7562 47.2946C31.7216 47.3491 32.4588 48.1753 32.4045 49.1385C32.3502 50.1029 31.5219 50.8393 30.5579 50.7862C29.5935 50.7296 28.8574 49.9046 28.9105 48.94C28.9648 47.9782 29.792 47.2406 30.7562 47.2946ZM38.4009 63.9302C38.5267 63.7382 38.6891 63.5729 38.8789 63.4437C39.0687 63.3145 39.2821 63.224 39.507 63.1773C39.7319 63.1306 39.9638 63.1286 40.1895 63.1715C40.4151 63.2144 40.6301 63.3013 40.8221 63.4273C41.6303 63.9551 41.8558 65.0386 41.3254 65.8472C40.7962 66.6544 39.7113 66.8787 38.9031 66.3512C38.5153 66.0964 38.2446 65.6984 38.1505 65.2445C38.0563 64.7906 38.1464 64.318 38.4009 63.9304M56.6468 65.6346C56.2107 64.7741 56.5592 63.7239 57.4194 63.2893C58.2856 62.855 59.336 63.2021 59.7698 64.0612C60.2057 64.9229 59.8569 65.9757 58.9944 66.4077C58.7895 66.5113 58.5661 66.5734 58.3371 66.5906C58.1081 66.6078 57.8779 66.5797 57.6598 66.5079C57.4417 66.4361 57.24 66.3219 57.0661 66.1721C56.8923 66.0222 56.7498 65.8396 56.6468 65.6346ZM67.2442 50.7038C66.2777 50.6493 65.5427 49.8229 65.597 48.8599C65.6096 48.6307 65.6674 48.4062 65.7671 48.1993C65.8667 47.9924 66.0062 47.8072 66.1777 47.6542C66.3491 47.5013 66.5491 47.3836 66.7662 47.308C66.9833 47.2323 67.2132 47.2002 67.4427 47.2134C68.4069 47.2665 69.1465 48.0926 69.0922 49.0582C69.039 50.0226 68.2084 50.7578 67.2442 50.7036M59.6018 34.0683C59.4766 34.2618 59.3142 34.4287 59.1242 34.5593C58.9341 34.6899 58.72 34.7817 58.4943 34.8293C58.2685 34.877 58.0356 34.8796 57.8088 34.837C57.5821 34.7943 57.366 34.7073 57.1731 34.581C56.9801 34.4546 56.8141 34.2914 56.6847 34.1007C56.5552 33.91 56.4647 33.6957 56.4185 33.4699C56.3724 33.2442 56.3714 33.0116 56.4156 32.7855C56.4599 32.5593 56.5485 32.3442 56.6763 32.1524C56.802 31.9605 56.9644 31.7951 57.1541 31.6659C57.3439 31.5366 57.5573 31.446 57.7821 31.3992C58.007 31.3524 58.2389 31.3503 58.4645 31.3931C58.6902 31.4358 58.9052 31.5226 59.0973 31.6484C59.9043 32.1785 60.1312 33.2608 59.6018 34.0683ZM37.5292 27.003C37.6644 27.2708 37.6876 27.5813 37.5936 27.8662C37.4997 28.1511 37.2963 28.387 37.0281 28.5222C36.8953 28.5891 36.7506 28.6292 36.6022 28.6402C36.4539 28.6512 36.3048 28.6329 36.1636 28.5863C36.0223 28.5397 35.8916 28.4657 35.779 28.3686C35.6665 28.2715 35.5741 28.1532 35.5074 28.0205C35.3724 27.7528 35.3494 27.4426 35.4433 27.1579C35.5373 26.8733 35.7405 26.6375 36.0085 26.5025C36.2766 26.3678 36.5874 26.3449 36.8725 26.4387C37.1576 26.5326 37.3938 26.7355 37.5292 27.003ZM24.1952 47.9253C24.3436 47.9336 24.4889 47.971 24.6228 48.0354C24.7568 48.0999 24.8766 48.19 24.9756 48.3007C25.0746 48.4115 25.1508 48.5406 25.1998 48.6807C25.2488 48.8209 25.2696 48.9693 25.261 49.1175C25.2243 49.7406 24.6902 50.2199 24.0676 50.1809C23.9192 50.1729 23.7738 50.1357 23.6399 50.0715C23.5059 50.0073 23.386 49.9172 23.287 49.8066C23.1879 49.6959 23.1118 49.5668 23.0629 49.4267C23.014 49.2866 22.9932 49.1382 23.0019 48.9901C23.019 48.691 23.1542 48.4109 23.3779 48.2112C23.6017 48.0116 23.8956 47.9088 24.1952 47.9253ZM35.6671 69.9216C35.7486 69.7972 35.8539 69.6901 35.977 69.6064C36.1 69.5227 36.2384 69.4641 36.3842 69.4339C36.53 69.4038 36.6804 69.4027 36.8266 69.4307C36.9728 69.4587 37.1121 69.5153 37.2364 69.5972C37.3606 69.6788 37.4676 69.784 37.5511 69.9069C37.6346 70.0298 37.6931 70.1679 37.7231 70.3134C37.7531 70.4588 37.7542 70.6087 37.7262 70.7546C37.6982 70.9005 37.6417 71.0394 37.5599 71.1634C37.3953 71.414 37.1378 71.589 36.844 71.6501C36.5502 71.7112 36.2441 71.6534 35.993 71.4893C35.7418 71.3244 35.5664 71.0667 35.5053 70.7728C35.4442 70.4789 35.5024 70.1727 35.6671 69.9216ZM60.4728 70.9982C60.1916 70.4374 60.4162 69.7578 60.975 69.4779C61.1076 69.4109 61.2521 69.3707 61.4002 69.3596C61.5484 69.3485 61.6973 69.3667 61.8384 69.4132C61.9795 69.4597 62.1099 69.5336 62.2224 69.6306C62.3348 69.7276 62.4269 69.8458 62.4934 69.9784C62.5606 70.1108 62.6009 70.2551 62.6122 70.4031C62.6234 70.5511 62.6053 70.6999 62.5588 70.8409C62.5124 70.9818 62.4386 71.1123 62.3416 71.2247C62.2446 71.3372 62.1263 71.4294 61.9935 71.4962C61.7257 71.6314 61.4151 71.6548 61.13 71.5615C60.8448 71.4681 60.6085 71.2655 60.4728 70.9982ZM73.8057 50.0759C73.5056 50.0587 73.2246 49.9232 73.0245 49.6992C72.8244 49.4752 72.7216 49.1811 72.7386 48.8814C72.7469 48.7329 72.7845 48.5875 72.8492 48.4535C72.9139 48.3195 73.0044 48.1996 73.1157 48.1007C73.2269 48.0018 73.3566 47.9258 73.4974 47.8771C73.6381 47.8284 73.7871 47.8079 73.9358 47.8169C74.5584 47.8499 75.0368 48.3869 74.9978 49.0099C74.9647 49.6321 74.4283 50.1089 73.8057 50.0759ZM62.3363 28.077C61.9912 28.5999 61.2893 28.7463 60.7682 28.4029C60.5173 28.2381 60.3421 27.9806 60.281 27.687C60.2199 27.3934 60.2779 27.0876 60.4423 26.8366C60.5237 26.7125 60.6289 26.6056 60.7517 26.5221C60.8746 26.4386 61.0127 26.3801 61.1583 26.35C61.3038 26.32 61.4539 26.3189 61.5998 26.3469C61.7458 26.3749 61.8848 26.4314 62.0088 26.5131C62.2597 26.6773 62.4351 26.9342 62.4965 27.2274C62.5579 27.5206 62.5003 27.8262 62.3363 28.077ZM37.8719 40.2485C38.8218 40.8693 39.0876 42.1441 38.4638 43.0932C38.3159 43.3193 38.1248 43.514 37.9014 43.6662C37.6779 43.8183 37.4266 43.9249 37.1618 43.9798C36.8971 44.0348 36.624 44.037 36.3584 43.9863C36.0928 43.9356 35.8398 43.833 35.6139 43.6845C34.6627 43.0637 34.3981 41.7898 35.0218 40.8386C35.6458 39.8908 36.9218 39.6241 37.8719 40.2485ZM35.8478 54.2517C36.8629 53.7396 38.1012 54.1492 38.6126 55.1618C39.1232 56.1758 38.7155 57.4128 37.7004 57.9239C36.6868 58.4348 35.4471 58.0254 34.9368 57.0137C34.4251 56 34.8328 54.7628 35.8478 54.2519M46.828 63.0038C46.8931 61.8708 47.8668 61.0045 48.9997 61.067C50.1366 61.1307 51.0037 62.1045 50.9388 63.2362C50.9237 63.506 50.8555 63.7701 50.7381 64.0135C50.6207 64.2569 50.4564 64.4747 50.2545 64.6547C50.0527 64.8346 49.8174 64.973 49.5619 65.062C49.3065 65.151 49.0359 65.1888 48.7658 65.1733C47.6315 65.1085 46.7644 64.1372 46.8282 63.0041M60.1315 57.7541C59.1816 57.1294 58.9156 55.856 59.5371 54.9057C60.1611 53.9579 61.4368 53.6937 62.3857 54.3156C63.337 54.9364 63.6016 56.2111 62.979 57.1601C62.3562 58.1115 61.0802 58.3746 60.1315 57.7538M62.1542 43.7484C61.1394 44.2593 59.9008 43.8522 59.3905 42.8382C58.8789 41.8254 59.2854 40.5885 60.3016 40.0787C61.3178 39.5664 62.5549 39.9748 63.0687 40.9886C63.5781 42.0012 63.1692 43.2384 62.1542 43.7482M51.0275 34.9962C50.9623 36.1281 49.9889 36.997 48.8521 36.9319C48.5822 36.9165 48.318 36.8482 48.0745 36.7308C47.8311 36.6134 47.6132 36.4493 47.4332 36.2479C47.2533 36.0464 47.1149 35.8115 47.0259 35.5567C46.9368 35.3018 46.899 35.0319 46.9144 34.7624C46.9793 33.6282 47.9507 32.7617 49.085 32.8256C49.6308 32.8565 50.1419 33.1025 50.5061 33.5095C50.8703 33.9165 51.0578 34.4512 51.0275 34.9962ZM30.2071 36.5601C30.8734 36.9944 31.0576 37.888 30.6217 38.5524C30.5181 38.7105 30.3843 38.8467 30.2279 38.9531C30.0715 39.0595 29.8956 39.134 29.7103 39.1724C29.525 39.2108 29.334 39.2123 29.1481 39.1768C28.9622 39.1412 28.7852 39.0694 28.6272 38.9654C27.9621 38.53 27.7753 37.6364 28.2126 36.9732C28.6496 36.3097 29.5417 36.1221 30.2071 36.5601ZM28.8188 59.0381C28.9877 58.9527 29.1719 58.9015 29.3606 58.8873C29.5494 58.8732 29.7392 58.8964 29.919 58.9556C30.0988 59.0148 30.2651 59.1089 30.4084 59.2324C30.5517 59.3559 30.6692 59.5065 30.7541 59.6754C30.926 60.0165 30.9552 60.4117 30.8353 60.7743C30.7154 61.1368 30.4563 61.437 30.1149 61.6088C29.4047 61.9652 28.5387 61.682 28.1805 60.9726C27.8238 60.2632 28.1086 59.3958 28.8188 59.0381ZM47.4649 71.4786C47.4753 71.2899 47.5229 71.1052 47.6049 70.9348C47.687 70.7645 47.8019 70.6121 47.943 70.4862C48.0842 70.3603 48.2489 70.2635 48.4276 70.2012C48.6063 70.139 48.7955 70.1126 48.9845 70.1236C49.1734 70.1342 49.3584 70.1819 49.5288 70.264C49.6993 70.346 49.8519 70.4608 49.9779 70.6018C50.1039 70.7428 50.2008 70.9072 50.2631 71.0856C50.3254 71.264 50.3519 71.4529 50.3411 71.6416C50.3308 71.8304 50.2833 72.0153 50.2013 72.1857C50.1193 72.3562 50.0044 72.5087 49.8632 72.6347C49.722 72.7607 49.5573 72.8576 49.3785 72.9199C49.1997 72.9821 49.0104 73.0086 48.8213 72.9976C48.6323 72.9871 48.4472 72.9394 48.2766 72.8573C48.106 72.7752 47.9534 72.6603 47.8274 72.5192C47.7014 72.3781 47.6045 72.2136 47.5423 72.035C47.4801 71.8564 47.4538 71.6674 47.4649 71.4786ZM67.7926 61.4402C67.4734 61.2305 67.2505 60.903 67.1727 60.5295C67.095 60.156 67.1688 59.7669 67.378 59.4477C67.815 58.7842 68.7083 58.5966 69.3737 59.0332C69.6926 59.243 69.9154 59.5705 69.9931 59.944C70.0708 60.3174 69.9971 60.7063 69.7883 61.0257C69.6845 61.1838 69.5506 61.32 69.3942 61.4264C69.2377 61.5328 69.0618 61.6074 68.8764 61.6458C68.6911 61.6843 68.5 61.6859 68.314 61.6506C68.128 61.6152 67.9509 61.5437 67.7926 61.4399M69.1834 38.9631C68.8416 39.1344 68.4457 39.1632 68.0826 39.0433C67.7195 38.9234 67.4189 38.6645 67.2467 38.3234C67.1616 38.1548 67.1106 37.971 67.0967 37.7826C67.0827 37.5942 67.1061 37.4049 67.1655 37.2256C67.2248 37.0462 67.319 36.8803 67.4427 36.7374C67.5663 36.5944 67.7169 36.4772 67.886 36.3924C68.0548 36.3073 68.2388 36.2562 68.4274 36.2421C68.616 36.2281 68.8056 36.2512 68.9852 36.3103C69.1648 36.3694 69.331 36.4632 69.4744 36.5865C69.6177 36.7097 69.7352 36.86 69.8204 37.0286C70.1782 37.7394 69.8923 38.6054 69.1834 38.9631ZM50.3906 26.5214C50.3689 26.9025 50.1966 27.2594 49.9114 27.5137C49.6262 27.7679 49.2515 27.8985 48.8698 27.8769C48.4882 27.8553 48.1307 27.6832 47.8761 27.3984C47.6215 27.1137 47.4907 26.7396 47.5123 26.3585C47.5585 25.563 48.2378 24.9563 49.033 25.0025C49.2221 25.0131 49.4071 25.0609 49.5777 25.143C49.7482 25.2251 49.9009 25.34 50.027 25.4811C50.1531 25.6221 50.2501 25.7866 50.3124 25.9651C50.3748 26.1436 50.4014 26.3326 50.3906 26.5214Z" fill="#FFDE59"/>
</svg>
