<svg width="173" height="173" viewBox="0 0 173 173" fill="none" xmlns="http://www.w3.org/2000/svg">
<path d="M87.5582 102.633C81.7607 101.032 80.1232 100.131 80.429 97.2623C80.6141 95.5202 82.0906 93.8667 84.0178 93.239C87.6105 92.0763 92.0522 93.9512 94.1322 97.5117C94.8041 98.6624 96.2847 99.0526 97.4353 98.3767C98.586 97.7049 98.9722 96.2243 98.3003 95.0736C96.2243 91.5211 92.6798 89.1112 88.8859 88.3387V83.2614C88.8859 81.9297 87.8036 80.8474 86.4719 80.8474C85.1402 80.8474 84.058 81.9297 84.058 83.2614V88.2623C83.543 88.3548 83.028 88.4836 82.5251 88.6445C78.7835 89.8595 76.0075 93.1143 75.6212 96.7473C74.8367 104.122 81.4429 105.949 86.2668 107.28C91.7223 108.789 94.1081 109.787 94.0276 113.017C93.9995 114.1 93.3919 115.238 92.4022 116.055C91.1631 117.077 89.594 117.459 88.4956 117.6C84.754 118.075 80.7871 116.425 78.3852 113.396C77.5564 112.35 76.0396 112.177 74.9936 113.005C73.9475 113.834 73.7745 115.351 74.6033 116.397C77.0052 119.422 80.3928 121.45 84.054 122.19V127.308C84.054 128.64 85.1362 129.722 86.4679 129.722C87.7996 129.722 88.8819 128.64 88.8819 127.308V122.408C88.9543 122.4 89.0307 122.396 89.1032 122.388C91.5855 122.074 93.7902 121.168 95.476 119.776C97.5278 118.079 98.7912 115.596 98.8515 113.134C99.0406 105.808 92.4022 103.973 87.5582 102.633Z" fill="#FFDE59"/>
<path d="M129.541 114.828V95.6611C129.573 95.5083 129.589 95.3513 129.589 95.1864C129.589 95.0214 129.573 94.8645 129.541 94.7116V75.5127C129.541 71.5216 126.29 68.2708 122.299 68.2708H113.435V55.3602C113.435 41.7576 102.371 30.6936 88.7688 30.6936H84.1783C70.5757 30.6936 59.5117 41.7576 59.5117 55.3602V68.2708H50.6525C46.6614 68.2708 43.4106 71.5216 43.4106 75.5127V135.069C43.4106 139.06 46.6614 142.311 50.6525 142.311H122.303C126.294 142.311 129.545 139.06 129.545 135.069V115.777C129.577 115.625 129.593 115.468 129.593 115.303C129.593 115.138 129.573 114.981 129.541 114.828ZM64.3436 55.3562C64.3436 44.4169 73.2431 35.5175 84.1823 35.5175H88.7729C99.7121 35.5175 108.612 44.4169 108.612 55.3562V68.2668H64.3436V55.3562ZM122.299 137.483H50.6525C49.3208 137.483 48.2386 136.401 48.2386 135.069V117.717H55.8747C57.2064 117.717 58.2886 116.634 58.2886 115.303C58.2886 113.971 57.2064 112.889 55.8747 112.889H48.2386V97.6003H55.8747C57.2064 97.6003 58.2886 96.5181 58.2886 95.1864C58.2886 93.8547 57.2064 92.7724 55.8747 92.7724H48.2386V75.5127C48.2386 74.181 49.3208 73.0987 50.6525 73.0987H61.9297H111.025H122.303C123.634 73.0987 124.717 74.181 124.717 75.5127V92.7724H117.177C115.845 92.7724 114.763 93.8547 114.763 95.1864C114.763 96.5181 115.845 97.6003 117.177 97.6003H124.717V112.889H117.177C115.845 112.889 114.763 113.971 114.763 115.303C114.763 116.634 115.845 117.717 117.177 117.717H124.717V135.069C124.713 136.401 123.63 137.483 122.299 137.483Z" fill="black"/>
</svg>
