<svg width="18" height="16" viewBox="0 0 18 16" fill="none" xmlns="http://www.w3.org/2000/svg">
<path d="M17.9728 2.7174C17.5084 3.33692 16.947 3.87733 16.3103 4.31776C16.3103 4.47959 16.3103 4.64142 16.3103 4.81225C16.3154 7.7511 15.1415 10.5691 13.0518 12.6345C10.962 14.6999 8.1312 15.8399 5.19405 15.7989C3.49599 15.8046 1.81967 15.4169 0.296422 14.6661C0.214282 14.6302 0.161312 14.549 0.161622 14.4593V14.3604C0.161622 14.2313 0.266232 14.1267 0.395272 14.1267C2.06442 14.0716 3.67402 13.4929 4.99634 12.4724C3.48553 12.4419 2.12619 11.5469 1.5006 10.1707C1.46901 10.0956 1.47884 10.0093 1.52657 9.9432C1.57429 9.8771 1.653 9.8407 1.73425 9.8471C2.19342 9.8932 2.65718 9.8505 3.1002 9.7212C1.43239 9.375 0.179212 7.9904 -0.000137933 6.2957C-0.00650793 6.2144 0.029922 6.1357 0.096002 6.0879C0.162072 6.0402 0.248242 6.0303 0.323382 6.062C0.770942 6.2595 1.25409 6.3635 1.74324 6.3676C0.281842 5.40846 -0.349388 3.58405 0.206552 1.92622C0.263942 1.76513 0.401812 1.64612 0.569502 1.61294C0.737182 1.57975 0.909962 1.63728 1.02432 1.76439C2.99639 3.86325 5.70604 5.11396 8.5819 5.25279C8.5083 4.95885 8.4721 4.65676 8.4741 4.35372C8.501 2.76472 9.4842 1.34921 10.9634 0.769872C12.4425 0.190542 14.1249 0.562032 15.223 1.71044C15.9714 1.56785 16.695 1.31645 17.3707 0.964212C17.4202 0.933312 17.483 0.933312 17.5325 0.964212C17.5634 1.01373 17.5634 1.07652 17.5325 1.12604C17.2052 1.87552 16.6523 2.50412 15.9509 2.92419C16.5651 2.85296 17.1685 2.70807 17.7482 2.49264C17.797 2.45942 17.8611 2.45942 17.9099 2.49264C17.9508 2.51134 17.9814 2.54711 17.9935 2.59042C18.0056 2.63373 17.998 2.68018 17.9728 2.7174Z" fill="white"/>
</svg>
