<svg width="10" height="19" viewBox="0 0 10 19" fill="none" xmlns="http://www.w3.org/2000/svg">
<path d="M9.5 3.4375H6.5C5.9477 3.4375 5.5 3.88522 5.5 4.4375V7.4375H9.5C9.6137 7.43498 9.7216 7.4879 9.7892 7.5794C9.8568 7.6709 9.8758 7.7895 9.84 7.8975L9.1 10.0975C9.0318 10.2994 8.8431 10.4359 8.63 10.4375H5.5V17.9375C5.5 18.2136 5.2761 18.4375 5 18.4375H2.5C2.22386 18.4375 2 18.2136 2 17.9375V10.4375H0.5C0.22386 10.4375 0 10.2136 0 9.9375V7.9375C0 7.6614 0.22386 7.4375 0.5 7.4375H2V4.4375C2 2.22836 3.7909 0.4375 6 0.4375H9.5C9.7761 0.4375 10 0.66136 10 0.9375V2.9375C10 3.21364 9.7761 3.4375 9.5 3.4375Z" fill="white"/>
</svg>
