<svg width="98" height="98" viewBox="0 0 98 98" fill="none" xmlns="http://www.w3.org/2000/svg">
<rect width="98" height="98" rx="49" fill="black"/>
<path d="M31 28C27.6906 28 25 30.6906 25 34V64C25 67.3094 27.6906 70 31 70H67C70.3094 70 73 67.3094 73 64V43C73 39.6906 70.3094 37 67 37H32.5C31.675 37 31 36.325 31 35.5C31 34.675 31.675 34 32.5 34H67C68.6594 34 70 32.6594 70 31C70 29.3406 68.6594 28 67 28H31ZM64 56.5C62.3406 56.5 61 55.1594 61 53.5C61 51.8406 62.3406 50.5 64 50.5C65.6594 50.5 67 51.8406 67 53.5C67 55.1594 65.6594 56.5 64 56.5Z" fill="#FFDE59"/>
</svg>
